<svg xmlns="http://www.w3.org/2000/svg" xmlns:xlink="http://www.w3.org/1999/xlink" width="400" zoomAndPan="magnify" viewBox="0 0 300 52.499999" height="70" preserveAspectRatio="xMidYMid meet" version="1.0"><defs><clipPath id="f347abdfba"><path d="M 174 22.28125 L 294 22.28125 L 294 51 L 174 51 Z M 174 22.28125 " clip-rule="nonzero"/></clipPath><clipPath id="ac45484134"><path d="M 201 23 L 293 23 L 293 51.996094 L 201 51.996094 Z M 201 23 " clip-rule="nonzero"/></clipPath><clipPath id="f50415b1b9"><path d="M 6 22.28125 L 126 22.28125 L 126 51 L 6 51 Z M 6 22.28125 " clip-rule="nonzero"/></clipPath><clipPath id="8fca8c7d1a"><path d="M 7 23 L 99 23 L 99 51.996094 L 7 51.996094 Z M 7 23 " clip-rule="nonzero"/></clipPath><clipPath id="a6550da21b"><path d="M 143.667969 11.425781 L 156.296875 11.425781 L 156.296875 31.484375 L 143.667969 31.484375 Z M 143.667969 11.425781 " clip-rule="nonzero"/></clipPath></defs><g clip-path="url(#f347abdfba)"><path fill="#422819" d="M 178.535156 24.710938 C 178.550781 24.726562 178.476562 24.855469 178.316406 25.085938 C 178.226562 25.21875 178.125 25.359375 178.015625 25.515625 C 177.886719 25.675781 177.761719 25.882812 177.625 26.117188 C 177.046875 27.03125 176.296875 28.484375 175.902344 30.5 C 175.691406 31.503906 175.601562 32.640625 175.617188 33.882812 C 175.671875 35.121094 175.863281 36.460938 176.273438 37.84375 C 176.6875 39.222656 177.320312 40.640625 178.25 41.96875 C 179.175781 43.289062 180.410156 44.519531 181.875 45.554688 C 183.347656 46.589844 185.0625 47.425781 186.941406 48 C 188.828125 48.554688 190.875 48.839844 192.988281 48.804688 C 195.09375 48.730469 197.273438 48.351562 199.359375 47.539062 C 201.4375 46.730469 203.433594 45.503906 204.980469 43.796875 C 206.53125 42.117188 207.554688 39.890625 207.769531 37.53125 C 207.984375 35.183594 207.289062 32.742188 205.582031 31.042969 C 203.914062 29.328125 201.398438 28.3125 198.976562 28.574219 C 196.554688 28.828125 194.210938 30.367188 192.914062 32.539062 C 192.757812 32.773438 192.648438 33.035156 192.515625 33.289062 C 192.410156 33.554688 192.285156 33.8125 192.207031 34.09375 C 192.023438 34.640625 191.910156 35.230469 191.867188 35.824219 C 191.761719 37.023438 191.988281 38.277344 192.480469 39.484375 C 193.484375 41.90625 195.59375 44.070312 198.226562 45.480469 C 199.546875 46.179688 201 46.699219 202.519531 46.941406 C 202.902344 46.996094 203.28125 47.042969 203.667969 47.0625 C 204.058594 47.082031 204.460938 47.078125 204.863281 47.085938 C 205.664062 47.070312 206.472656 47.011719 207.285156 46.898438 C 210.539062 46.445312 213.785156 45.179688 216.945312 43.574219 C 220.113281 41.96875 223.242188 40.023438 226.480469 38.15625 C 229.714844 36.285156 233.023438 34.445312 236.40625 32.703125 C 239.78125 30.953125 243.246094 29.320312 246.78125 27.890625 C 250.316406 26.46875 253.914062 25.207031 257.566406 24.277344 C 261.214844 23.355469 264.894531 22.734375 268.535156 22.457031 C 269.445312 22.410156 270.351562 22.367188 271.253906 22.324219 C 272.15625 22.316406 273.054688 22.34375 273.945312 22.355469 C 275.730469 22.367188 277.496094 22.539062 279.214844 22.824219 C 282.648438 23.394531 285.957031 24.613281 288.507812 26.714844 C 291.039062 28.789062 292.804688 31.660156 293.183594 34.652344 C 293.398438 36.136719 293.183594 37.636719 292.707031 38.953125 C 292.195312 40.265625 291.453125 41.445312 290.507812 42.355469 C 289.566406 43.265625 288.457031 43.957031 287.285156 44.285156 C 286.121094 44.621094 284.910156 44.617188 283.855469 44.292969 C 282.796875 43.976562 281.894531 43.40625 281.179688 42.742188 C 280.457031 42.078125 279.917969 41.3125 279.554688 40.539062 C 278.808594 38.980469 278.914062 37.398438 279.359375 36.320312 L 279.363281 36.300781 L 279.382812 36.300781 C 281.660156 35.910156 282.871094 35.699219 282.871094 35.699219 C 282.871094 35.699219 281.707031 35.914062 279.390625 36.332031 C 279.324219 36.546875 279.253906 36.773438 279.179688 37.007812 C 279.128906 37.25 279.105469 37.507812 279.0625 37.769531 C 279.066406 38.039062 279.054688 38.316406 279.082031 38.605469 C 279.136719 38.886719 279.144531 39.191406 279.25 39.484375 C 279.292969 39.632812 279.339844 39.785156 279.382812 39.9375 C 279.445312 40.085938 279.511719 40.234375 279.574219 40.386719 C 279.691406 40.699219 279.894531 40.976562 280.0625 41.285156 C 280.460938 41.859375 280.945312 42.429688 281.554688 42.925781 C 282.171875 43.40625 282.890625 43.828125 283.707031 44.097656 C 284.519531 44.378906 285.445312 44.449219 286.367188 44.300781 C 288.222656 44.019531 290.054688 42.832031 291.296875 41.054688 C 291.921875 40.167969 292.421875 39.140625 292.695312 38.015625 C 292.976562 36.894531 293.019531 35.683594 292.820312 34.472656 C 292.429688 32.042969 291.070312 29.683594 289.09375 27.8125 C 287.113281 25.933594 284.472656 24.632812 281.585938 23.898438 C 278.691406 23.160156 275.554688 22.929688 272.320312 23 C 265.839844 23.066406 258.941406 24.472656 252 26.957031 C 245.054688 29.464844 238.050781 32.988281 230.972656 37.109375 C 230.085938 37.613281 229.199219 38.140625 228.308594 38.671875 C 227.414062 39.199219 226.519531 39.730469 225.625 40.277344 C 223.832031 41.355469 222.03125 42.480469 220.160156 43.554688 C 218.292969 44.628906 216.359375 45.664062 214.316406 46.546875 C 212.273438 47.417969 210.113281 48.132812 207.847656 48.527344 C 206.710938 48.699219 205.554688 48.835938 204.382812 48.816406 C 203.21875 48.847656 202 48.695312 200.84375 48.417969 C 198.519531 47.839844 196.324219 46.730469 194.445312 45.171875 C 192.589844 43.609375 190.992188 41.566406 190.25 39.085938 C 189.871094 37.855469 189.75 36.519531 189.890625 35.214844 C 190.046875 33.910156 190.460938 32.613281 191.140625 31.476562 C 192.101562 29.878906 193.472656 28.59375 195.054688 27.734375 C 196.625 26.875 198.433594 26.421875 200.195312 26.535156 C 201.949219 26.636719 203.621094 27.203125 205.035156 28.105469 C 206.464844 28.992188 207.640625 30.226562 208.449219 31.660156 C 209.25 33.101562 209.636719 34.703125 209.675781 36.257812 C 209.722656 37.816406 209.433594 39.332031 208.921875 40.722656 C 208.667969 41.421875 208.339844 42.082031 207.984375 42.714844 C 207.605469 43.335938 207.191406 43.9375 206.730469 44.476562 C 205.8125 45.558594 204.753906 46.472656 203.625 47.214844 C 202.5 47.960938 201.316406 48.550781 200.117188 49.003906 C 198.914062 49.460938 197.699219 49.789062 196.488281 49.992188 C 195.285156 50.226562 194.082031 50.28125 192.914062 50.308594 C 192.328125 50.28125 191.746094 50.292969 191.179688 50.226562 C 190.894531 50.199219 190.613281 50.171875 190.328125 50.144531 C 190.050781 50.101562 189.773438 50.058594 189.496094 50.015625 C 185.085938 49.289062 181.375 47.183594 178.925781 44.53125 C 177.695312 43.203125 176.773438 41.734375 176.160156 40.273438 C 175.542969 38.8125 175.195312 37.371094 175.023438 36.023438 C 174.671875 33.320312 175.089844 31.023438 175.671875 29.308594 C 176.265625 27.582031 177.050781 26.433594 177.597656 25.710938 C 177.882812 25.355469 178.128906 25.113281 178.28125 24.945312 C 178.441406 24.78125 178.523438 24.699219 178.535156 24.710938 Z M 178.535156 24.710938 " fill-opacity="1" fill-rule="nonzero"/></g><path fill="#422819" d="M 161.105469 38.359375 C 161.054688 38.382812 160.953125 38.199219 160.6875 37.960938 C 160.417969 37.730469 159.941406 37.464844 159.285156 37.445312 C 158.648438 37.421875 157.804688 37.683594 157.429688 38.421875 C 157.023438 39.132812 157.109375 40.296875 157.773438 41.101562 C 158.398438 41.894531 159.710938 42.226562 160.917969 41.851562 C 162.113281 41.503906 163.164062 40.402344 163.707031 38.992188 C 164.261719 37.589844 164.34375 35.894531 163.855469 34.320312 C 163.375 32.738281 162.296875 31.34375 160.753906 30.554688 C 159.992188 30.164062 159.082031 29.871094 158.101562 29.839844 C 157.125 29.796875 156.097656 30.03125 155.152344 30.570312 C 154.671875 30.824219 154.242188 31.199219 153.820312 31.59375 C 153.425781 32.019531 153.039062 32.484375 152.730469 33.019531 C 152.09375 34.074219 151.644531 35.320312 151.480469 36.632812 C 151.066406 39.25 151.996094 42.078125 153.703125 44.304688 C 155.414062 46.539062 157.914062 48.179688 160.550781 48.832031 C 161.867188 49.160156 163.214844 49.242188 164.496094 49.078125 C 165.78125 48.914062 166.992188 48.519531 168.074219 47.996094 C 169.15625 47.46875 170.128906 46.828125 170.933594 46.101562 C 171.746094 45.386719 172.433594 44.628906 172.960938 43.867188 C 174.050781 42.359375 174.589844 40.910156 174.851562 39.898438 C 175.003906 39.394531 175.050781 38.984375 175.097656 38.710938 C 175.144531 38.4375 175.167969 38.292969 175.167969 38.292969 C 175.167969 38.292969 175.121094 38.644531 175.03125 39.320312 C 174.960938 39.652344 174.867188 40.066406 174.742188 40.546875 C 174.582031 41.023438 174.414062 41.578125 174.132812 42.167969 C 173.59375 43.351562 172.734375 44.734375 171.40625 46.070312 C 170.0625 47.371094 168.253906 48.652344 165.933594 49.328125 C 164.78125 49.65625 163.511719 49.835938 162.183594 49.773438 C 160.859375 49.71875 159.484375 49.410156 158.152344 48.863281 C 155.496094 47.769531 152.921875 45.710938 151.34375 42.75 C 150.570312 41.273438 150.039062 39.578125 149.984375 37.777344 C 149.945312 35.988281 150.3125 34.132812 151.1875 32.429688 C 152.035156 30.734375 153.496094 29.179688 155.460938 28.386719 C 157.433594 27.609375 159.75 27.765625 161.710938 28.71875 C 162.886719 29.34375 163.875 30.25 164.582031 31.289062 C 165.292969 32.324219 165.710938 33.476562 165.917969 34.609375 C 166.316406 36.886719 165.824219 39.121094 164.710938 40.800781 C 164.15625 41.640625 163.421875 42.34375 162.582031 42.808594 C 161.734375 43.285156 160.800781 43.472656 159.929688 43.433594 C 159.054688 43.394531 158.21875 43.105469 157.570312 42.617188 C 156.902344 42.125 156.492188 41.421875 156.292969 40.75 C 156.101562 40.066406 156.105469 39.382812 156.28125 38.777344 C 156.464844 38.175781 156.808594 37.667969 157.253906 37.339844 C 157.699219 37.019531 158.183594 36.886719 158.613281 36.851562 C 159.042969 36.816406 159.429688 36.878906 159.753906 36.984375 C 160.40625 37.203125 160.78125 37.605469 160.945312 37.890625 C 161.035156 38.03125 161.078125 38.152344 161.09375 38.234375 C 161.117188 38.3125 161.121094 38.355469 161.105469 38.359375 Z M 161.105469 38.359375 " fill-opacity="1" fill-rule="nonzero"/><g clip-path="url(#ac45484134)"><path fill="#422819" d="M 290.253906 42.09375 C 290.238281 42.074219 290.289062 41.992188 290.394531 41.851562 C 290.503906 41.714844 290.671875 41.519531 290.851562 41.230469 C 291.226562 40.675781 291.707031 39.789062 291.929688 38.542969 C 292.144531 37.3125 292.101562 35.71875 291.484375 34.0625 C 290.878906 32.414062 289.597656 30.769531 287.785156 29.453125 C 285.980469 28.128906 283.671875 27.105469 281.097656 26.386719 C 278.539062 25.679688 275.65625 25.285156 272.835938 25.914062 C 271.429688 26.234375 270.082031 26.792969 268.941406 27.71875 C 267.777344 28.613281 266.824219 29.832031 266.234375 31.199219 C 265.949219 31.886719 265.773438 32.613281 265.726562 33.34375 C 265.679688 34.066406 265.753906 34.839844 265.984375 35.484375 C 266.472656 36.804688 267.625 37.960938 269.023438 38.574219 C 270.40625 39.183594 272.195312 39.269531 273.433594 38.25 C 274.714844 37.257812 275.199219 35.253906 274.660156 33.324219 C 274.402344 32.363281 273.9375 31.417969 273.261719 30.648438 C 272.59375 29.898438 271.683594 29.28125 270.65625 28.851562 C 268.597656 27.988281 266.132812 27.875 263.695312 28.210938 C 261.253906 28.578125 258.761719 29.296875 256.371094 30.28125 C 253.976562 31.265625 251.652344 32.507812 249.402344 33.875 C 244.898438 36.621094 240.683594 39.847656 236.492188 42.742188 C 234.398438 44.1875 232.3125 45.582031 230.179688 46.742188 C 228.058594 47.910156 225.933594 48.894531 223.855469 49.703125 C 221.761719 50.480469 219.71875 51.070312 217.773438 51.472656 C 217.285156 51.5625 216.800781 51.628906 216.324219 51.707031 C 216.089844 51.746094 215.855469 51.78125 215.621094 51.820312 C 215.386719 51.839844 215.152344 51.863281 214.925781 51.882812 C 214.464844 51.921875 214.011719 51.960938 213.574219 52 C 213.128906 52 212.695312 52.003906 212.273438 52.007812 C 208.878906 52.019531 206.183594 51.253906 204.453125 50.503906 C 203.5625 50.183594 202.941406 49.777344 202.5 49.550781 C 202.0625 49.316406 201.832031 49.191406 201.832031 49.191406 C 201.832031 49.191406 202.394531 49.484375 203.472656 50.046875 C 204.023438 50.3125 204.738281 50.554688 205.570312 50.882812 C 206.4375 51.09375 207.421875 51.429688 208.582031 51.566406 C 210.882812 51.929688 213.785156 51.941406 217.066406 51.300781 C 220.351562 50.691406 223.976562 49.367188 227.75 47.433594 C 229.632812 46.449219 231.542969 45.292969 233.46875 43.984375 C 235.398438 42.667969 237.351562 41.214844 239.378906 39.703125 C 243.441406 36.6875 247.757812 33.316406 252.898438 30.566406 C 255.46875 29.203125 258.253906 28.019531 261.253906 27.253906 C 262.746094 26.84375 264.316406 26.582031 265.929688 26.523438 C 267.539062 26.460938 269.210938 26.628906 270.828125 27.171875 C 271.632812 27.4375 272.414062 27.828125 273.140625 28.308594 C 273.871094 28.792969 274.554688 29.425781 275.078125 30.148438 C 275.605469 30.875 276.019531 31.683594 276.308594 32.542969 C 276.59375 33.402344 276.753906 34.320312 276.722656 35.261719 C 276.695312 36.199219 276.484375 37.164062 276.027344 38.042969 C 275.574219 38.925781 274.878906 39.691406 274.011719 40.238281 C 273.128906 40.777344 272.101562 41.03125 271.097656 41.042969 C 270.09375 41.058594 269.109375 40.84375 268.195312 40.46875 C 267.101562 39.980469 266.136719 39.265625 265.371094 38.375 C 264.609375 37.488281 264.054688 36.394531 263.84375 35.242188 C 263.632812 34.128906 263.683594 32.996094 263.933594 31.949219 C 264.179688 30.898438 264.621094 29.933594 265.167969 29.078125 C 266.273438 27.367188 267.78125 26.050781 269.464844 25.203125 C 271.167969 24.371094 272.933594 24.007812 274.625 23.933594 C 276.320312 23.851562 277.929688 24.054688 279.421875 24.378906 C 280.917969 24.703125 282.300781 25.167969 283.585938 25.683594 C 286.160156 26.71875 288.351562 28.109375 289.917969 29.777344 C 290.699219 30.613281 291.324219 31.496094 291.777344 32.40625 C 292.230469 33.3125 292.492188 34.222656 292.628906 35.078125 C 292.765625 35.929688 292.769531 36.730469 292.703125 37.445312 C 292.621094 38.164062 292.464844 38.796875 292.269531 39.339844 C 291.867188 40.429688 291.328125 41.140625 290.921875 41.542969 C 290.515625 41.953125 290.265625 42.105469 290.253906 42.09375 Z M 290.253906 42.09375 " fill-opacity="1" fill-rule="nonzero"/></g><g clip-path="url(#f50415b1b9)"><path fill="#422819" d="M 121.496094 24.710938 C 121.480469 24.726562 121.554688 24.855469 121.714844 25.085938 C 121.808594 25.21875 121.90625 25.359375 122.015625 25.515625 C 122.144531 25.675781 122.273438 25.882812 122.40625 26.117188 C 122.988281 27.03125 123.738281 28.484375 124.128906 30.5 C 124.339844 31.503906 124.429688 32.640625 124.417969 33.882812 C 124.363281 35.121094 124.171875 36.460938 123.757812 37.84375 C 123.347656 39.222656 122.710938 40.640625 121.78125 41.96875 C 120.859375 43.289062 119.625 44.519531 118.15625 45.554688 C 116.6875 46.589844 114.972656 47.425781 113.09375 48 C 111.207031 48.554688 109.160156 48.839844 107.046875 48.804688 C 104.9375 48.730469 102.761719 48.351562 100.671875 47.539062 C 98.59375 46.730469 96.601562 45.503906 95.054688 43.796875 C 93.5 42.117188 92.476562 39.890625 92.261719 37.53125 C 92.046875 35.183594 92.742188 32.742188 94.449219 31.042969 C 96.117188 29.328125 98.632812 28.3125 101.058594 28.574219 C 103.480469 28.828125 105.824219 30.367188 107.117188 32.539062 C 107.273438 32.773438 107.382812 33.035156 107.519531 33.289062 C 107.621094 33.554688 107.75 33.8125 107.824219 34.09375 C 108.007812 34.640625 108.121094 35.230469 108.164062 35.824219 C 108.269531 37.023438 108.046875 38.277344 107.550781 39.484375 C 106.546875 41.90625 104.4375 44.070312 101.804688 45.480469 C 100.488281 46.179688 99.03125 46.699219 97.511719 46.941406 C 97.132812 46.996094 96.75 47.042969 96.363281 47.0625 C 95.972656 47.082031 95.570312 47.078125 95.171875 47.085938 C 94.371094 47.070312 93.558594 47.011719 92.746094 46.898438 C 89.492188 46.445312 86.25 45.179688 83.085938 43.574219 C 79.917969 41.96875 76.792969 40.023438 73.550781 38.15625 C 70.320312 36.285156 67.007812 34.445312 63.628906 32.703125 C 60.25 30.953125 56.789062 29.320312 53.25 27.890625 C 49.714844 26.46875 46.117188 25.207031 42.46875 24.277344 C 38.820312 23.355469 35.136719 22.734375 31.496094 22.457031 C 30.585938 22.410156 29.679688 22.367188 28.777344 22.324219 C 27.875 22.316406 26.976562 22.34375 26.085938 22.355469 C 24.304688 22.367188 22.539062 22.539062 20.816406 22.824219 C 17.382812 23.394531 14.078125 24.613281 11.523438 26.714844 C 8.992188 28.789062 7.226562 31.660156 6.851562 34.652344 C 6.632812 36.136719 6.851562 37.636719 7.328125 38.953125 C 7.835938 40.265625 8.582031 41.445312 9.527344 42.355469 C 10.46875 43.265625 11.574219 43.957031 12.746094 44.285156 C 13.910156 44.621094 15.121094 44.617188 16.175781 44.292969 C 17.234375 43.976562 18.136719 43.40625 18.855469 42.742188 C 19.574219 42.078125 20.113281 41.3125 20.480469 40.539062 C 21.222656 38.980469 21.117188 37.398438 20.675781 36.320312 L 20.667969 36.300781 L 20.648438 36.300781 C 18.371094 35.910156 17.160156 35.699219 17.160156 35.699219 C 17.160156 35.699219 18.324219 35.914062 20.644531 36.332031 L 20.640625 36.332031 C 20.710938 36.546875 20.777344 36.773438 20.851562 37.007812 C 20.902344 37.25 20.929688 37.507812 20.96875 37.769531 C 20.964844 38.039062 20.976562 38.316406 20.949219 38.605469 C 20.894531 38.886719 20.886719 39.191406 20.78125 39.484375 C 20.738281 39.632812 20.695312 39.785156 20.648438 39.9375 C 20.585938 40.085938 20.523438 40.234375 20.457031 40.386719 C 20.34375 40.699219 20.136719 40.976562 19.972656 41.285156 C 19.570312 41.859375 19.085938 42.429688 18.476562 42.925781 C 17.863281 43.40625 17.144531 43.828125 16.324219 44.097656 C 15.511719 44.378906 14.589844 44.449219 13.667969 44.300781 C 11.808594 44.019531 9.980469 42.832031 8.734375 41.054688 C 8.113281 40.167969 7.609375 39.140625 7.335938 38.015625 C 7.054688 36.894531 7.011719 35.683594 7.210938 34.472656 C 7.605469 32.042969 8.964844 29.683594 10.9375 27.8125 C 12.917969 25.933594 15.558594 24.632812 18.445312 23.898438 C 21.339844 23.160156 24.476562 22.929688 27.710938 23 C 34.191406 23.066406 41.09375 24.472656 48.035156 26.957031 C 54.976562 29.464844 61.980469 32.988281 69.058594 37.109375 C 69.949219 37.613281 70.835938 38.140625 71.726562 38.671875 C 72.617188 39.199219 73.511719 39.730469 74.40625 40.277344 C 76.203125 41.355469 78.003906 42.480469 79.871094 43.554688 C 81.742188 44.628906 83.675781 45.664062 85.714844 46.546875 C 87.757812 47.417969 89.917969 48.132812 92.1875 48.527344 C 93.324219 48.699219 94.480469 48.835938 95.648438 48.816406 C 96.8125 48.847656 98.03125 48.695312 99.1875 48.417969 C 101.511719 47.839844 103.707031 46.730469 105.585938 45.171875 C 107.441406 43.609375 109.042969 41.566406 109.78125 39.085938 C 110.164062 37.855469 110.285156 36.519531 110.140625 35.214844 C 109.984375 33.910156 109.570312 32.613281 108.890625 31.476562 C 107.929688 29.878906 106.558594 28.59375 104.980469 27.734375 C 103.410156 26.875 101.601562 26.421875 99.839844 26.535156 C 98.082031 26.636719 96.414062 27.203125 94.996094 28.105469 C 93.570312 28.992188 92.390625 30.226562 91.582031 31.660156 C 90.785156 33.101562 90.394531 34.703125 90.355469 36.257812 C 90.3125 37.816406 90.601562 39.332031 91.109375 40.722656 C 91.367188 41.421875 91.691406 42.082031 92.050781 42.714844 C 92.429688 43.335938 92.839844 43.9375 93.304688 44.476562 C 94.222656 45.558594 95.28125 46.472656 96.40625 47.214844 C 97.53125 47.960938 98.714844 48.550781 99.917969 49.003906 C 101.117188 49.460938 102.332031 49.789062 103.542969 49.992188 C 104.75 50.226562 105.949219 50.28125 107.121094 50.308594 C 107.707031 50.28125 108.285156 50.292969 108.855469 50.226562 C 109.136719 50.199219 109.421875 50.171875 109.703125 50.144531 C 109.980469 50.101562 110.257812 50.058594 110.535156 50.015625 C 114.949219 49.289062 118.65625 47.183594 121.105469 44.53125 C 122.335938 43.203125 123.257812 41.734375 123.871094 40.273438 C 124.492188 38.8125 124.835938 37.371094 125.011719 36.023438 C 125.359375 33.320312 124.941406 31.023438 124.359375 29.308594 C 123.765625 27.582031 122.980469 26.433594 122.4375 25.710938 C 122.148438 25.355469 121.902344 25.113281 121.75 24.945312 C 121.59375 24.78125 121.507812 24.699219 121.496094 24.710938 Z M 121.496094 24.710938 " fill-opacity="1" fill-rule="nonzero"/></g><path fill="#422819" d="M 138.925781 38.359375 C 138.976562 38.382812 139.078125 38.199219 139.34375 37.960938 C 139.613281 37.730469 140.089844 37.464844 140.746094 37.445312 C 141.386719 37.421875 142.226562 37.683594 142.605469 38.421875 C 143.011719 39.132812 142.921875 40.296875 142.257812 41.101562 C 141.636719 41.894531 140.320312 42.226562 139.113281 41.851562 C 137.917969 41.503906 136.871094 40.402344 136.328125 38.992188 C 135.769531 37.589844 135.6875 35.894531 136.179688 34.320312 C 136.660156 32.738281 137.738281 31.34375 139.277344 30.554688 C 140.039062 30.164062 140.949219 29.871094 141.929688 29.839844 C 142.90625 29.796875 143.933594 30.03125 144.878906 30.570312 C 145.359375 30.824219 145.789062 31.199219 146.210938 31.59375 C 146.609375 32.019531 146.996094 32.484375 147.300781 33.019531 C 147.941406 34.074219 148.386719 35.320312 148.554688 36.632812 C 148.964844 39.25 148.039062 42.078125 146.328125 44.304688 C 144.621094 46.539062 142.121094 48.179688 139.484375 48.832031 C 138.164062 49.160156 136.816406 49.242188 135.535156 49.078125 C 134.25 48.914062 133.042969 48.519531 131.960938 47.996094 C 130.875 47.46875 129.902344 46.828125 129.097656 46.101562 C 128.289062 45.386719 127.601562 44.628906 127.070312 43.867188 C 125.980469 42.359375 125.441406 40.910156 125.179688 39.898438 C 125.027344 39.394531 124.980469 38.984375 124.933594 38.710938 C 124.890625 38.4375 124.867188 38.292969 124.867188 38.292969 C 124.867188 38.292969 124.914062 38.644531 125.003906 39.320312 C 125.070312 39.652344 125.164062 40.066406 125.292969 40.546875 C 125.449219 41.023438 125.617188 41.578125 125.902344 42.167969 C 126.441406 43.351562 127.300781 44.734375 128.625 46.070312 C 129.96875 47.371094 131.777344 48.652344 134.097656 49.328125 C 135.25 49.65625 136.519531 49.835938 137.847656 49.773438 C 139.175781 49.71875 140.546875 49.410156 141.882812 48.863281 C 144.539062 47.769531 147.113281 45.710938 148.691406 42.75 C 149.464844 41.273438 149.992188 39.578125 150.050781 37.777344 C 150.085938 35.988281 149.71875 34.132812 148.847656 32.429688 C 147.996094 30.734375 146.535156 29.179688 144.570312 28.386719 C 142.597656 27.609375 140.28125 27.765625 138.324219 28.71875 C 137.148438 29.34375 136.160156 30.25 135.449219 31.289062 C 134.742188 32.324219 134.320312 33.476562 134.113281 34.609375 C 133.714844 36.886719 134.210938 39.121094 135.324219 40.800781 C 135.878906 41.640625 136.609375 42.34375 137.449219 42.808594 C 138.300781 43.285156 139.230469 43.472656 140.101562 43.433594 C 140.976562 43.394531 141.8125 43.105469 142.464844 42.617188 C 143.132812 42.125 143.542969 41.421875 143.738281 40.75 C 143.933594 40.066406 143.925781 39.382812 143.75 38.777344 C 143.566406 38.175781 143.226562 37.667969 142.777344 37.339844 C 142.332031 37.019531 141.847656 36.886719 141.421875 36.851562 C 140.988281 36.816406 140.601562 36.878906 140.277344 36.984375 C 139.625 37.203125 139.253906 37.605469 139.085938 37.890625 C 138.996094 38.03125 138.957031 38.152344 138.9375 38.234375 C 138.914062 38.3125 138.914062 38.355469 138.925781 38.359375 Z M 138.925781 38.359375 " fill-opacity="1" fill-rule="nonzero"/><g clip-path="url(#8fca8c7d1a)"><path fill="#422819" d="M 9.777344 42.09375 C 9.792969 42.074219 9.746094 41.992188 9.636719 41.851562 C 9.53125 41.714844 9.359375 41.519531 9.179688 41.230469 C 8.804688 40.675781 8.324219 39.789062 8.101562 38.542969 C 7.890625 37.3125 7.929688 35.71875 8.546875 34.0625 C 9.15625 32.414062 10.433594 30.769531 12.246094 29.453125 C 14.050781 28.128906 16.359375 27.105469 18.933594 26.386719 C 21.492188 25.679688 24.378906 25.285156 27.195312 25.914062 C 28.601562 26.234375 29.949219 26.792969 31.09375 27.71875 C 32.253906 28.613281 33.207031 29.832031 33.796875 31.199219 C 34.082031 31.886719 34.257812 32.613281 34.308594 33.34375 C 34.355469 34.066406 34.277344 34.839844 34.046875 35.484375 C 33.558594 36.804688 32.40625 37.960938 31.007812 38.574219 C 29.628906 39.183594 27.839844 39.269531 26.597656 38.25 C 25.320312 37.257812 24.832031 35.253906 25.371094 33.324219 C 25.632812 32.363281 26.097656 31.417969 26.773438 30.648438 C 27.4375 29.898438 28.351562 29.28125 29.378906 28.851562 C 31.433594 27.988281 33.898438 27.875 36.335938 28.210938 C 38.78125 28.578125 41.269531 29.296875 43.660156 30.28125 C 46.058594 31.265625 48.382812 32.507812 50.628906 33.875 C 55.132812 36.621094 59.347656 39.847656 63.542969 42.742188 C 65.636719 44.1875 67.722656 45.582031 69.851562 46.742188 C 71.972656 47.910156 74.097656 48.894531 76.175781 49.703125 C 78.269531 50.480469 80.3125 51.070312 82.261719 51.472656 C 82.75 51.5625 83.234375 51.628906 83.707031 51.707031 C 83.945312 51.746094 84.179688 51.78125 84.410156 51.820312 C 84.644531 51.839844 84.878906 51.863281 85.109375 51.882812 C 85.566406 51.921875 86.019531 51.960938 86.460938 52 C 86.902344 52 87.335938 52.003906 87.761719 52.007812 C 91.15625 52.019531 93.851562 51.253906 95.578125 50.503906 C 96.472656 50.183594 97.089844 49.777344 97.535156 49.550781 C 97.972656 49.316406 98.203125 49.191406 98.203125 49.191406 C 98.203125 49.191406 97.640625 49.484375 96.558594 50.046875 C 96.011719 50.3125 95.292969 50.554688 94.460938 50.882812 C 93.59375 51.09375 92.613281 51.429688 91.449219 51.566406 C 89.152344 51.929688 86.25 51.941406 82.96875 51.300781 C 79.679688 50.691406 76.058594 49.367188 72.28125 47.433594 C 70.398438 46.449219 68.488281 45.292969 66.5625 43.984375 C 64.636719 42.667969 62.683594 41.214844 60.652344 39.703125 C 56.59375 36.6875 52.273438 33.316406 47.132812 30.566406 C 44.566406 29.203125 41.78125 28.019531 38.777344 27.253906 C 37.285156 26.84375 35.714844 26.582031 34.101562 26.523438 C 32.492188 26.460938 30.820312 26.628906 29.207031 27.171875 C 28.398438 27.4375 27.617188 27.828125 26.894531 28.308594 C 26.164062 28.792969 25.480469 29.425781 24.953125 30.148438 C 24.425781 30.875 24.011719 31.683594 23.722656 32.542969 C 23.4375 33.402344 23.277344 34.320312 23.308594 35.261719 C 23.335938 36.199219 23.546875 37.164062 24.003906 38.042969 C 24.457031 38.925781 25.152344 39.691406 26.023438 40.238281 C 26.902344 40.777344 27.933594 41.03125 28.933594 41.042969 C 29.941406 41.058594 30.925781 40.84375 31.835938 40.46875 C 32.933594 39.980469 33.898438 39.265625 34.660156 38.375 C 35.425781 37.488281 35.976562 36.394531 36.191406 35.242188 C 36.402344 34.128906 36.347656 32.996094 36.097656 31.949219 C 35.851562 30.898438 35.410156 29.933594 34.863281 29.078125 C 33.761719 27.367188 32.25 26.050781 30.566406 25.203125 C 28.867188 24.371094 27.097656 24.007812 25.40625 23.933594 C 23.714844 23.851562 22.105469 24.054688 20.609375 24.378906 C 19.113281 24.703125 17.734375 25.167969 16.445312 25.683594 C 13.875 26.71875 11.683594 28.109375 10.113281 29.777344 C 9.332031 30.613281 8.710938 31.496094 8.253906 32.40625 C 7.804688 33.3125 7.539062 34.222656 7.40625 35.078125 C 7.269531 35.929688 7.261719 36.730469 7.328125 37.445312 C 7.410156 38.164062 7.566406 38.796875 7.761719 39.339844 C 8.164062 40.429688 8.703125 41.140625 9.113281 41.542969 C 9.519531 41.953125 9.765625 42.105469 9.777344 42.09375 Z M 9.777344 42.09375 " fill-opacity="1" fill-rule="nonzero"/></g><g clip-path="url(#a6550da21b)"><path fill="#facac6" d="M 150.285156 31.21875 C 152.15625 24.777344 155.070312 22.351562 156.09375 21.660156 C 156.253906 21.554688 156.253906 21.339844 156.09375 21.234375 C 155.085938 20.5625 152.175781 18.121094 150.285156 11.675781 C 150.214844 11.425781 149.855469 11.425781 149.78125 11.675781 C 147.949219 18.121094 144.929688 20.546875 143.867188 21.234375 C 143.707031 21.339844 143.707031 21.570312 143.867188 21.679688 C 144.929688 22.351562 147.949219 24.792969 149.78125 31.238281 C 149.855469 31.484375 150.214844 31.484375 150.285156 31.21875 Z M 150.285156 31.21875 " fill-opacity="1" fill-rule="nonzero"/></g></svg>