<svg xmlns="http://www.w3.org/2000/svg" xmlns:xlink="http://www.w3.org/1999/xlink" width="400" zoomAndPan="magnify" viewBox="0 0 300 52.499999" height="70" preserveAspectRatio="xMidYMid meet" version="1.0"><defs><clipPath id="711c6aadf3"><path d="M 6 12 L 126 12 L 126 40.890625 L 6 40.890625 Z M 6 12 " clip-rule="nonzero"/></clipPath><clipPath id="acc643ff49"><path d="M 7 11.171875 L 99 11.171875 L 99 40 L 7 40 Z M 7 11.171875 " clip-rule="nonzero"/></clipPath><clipPath id="c20d5b7ce1"><path d="M 174 12 L 294 12 L 294 40.890625 L 174 40.890625 Z M 174 12 " clip-rule="nonzero"/></clipPath><clipPath id="e0b6a1111d"><path d="M 201 11.171875 L 293 11.171875 L 293 40 L 201 40 Z M 201 11.171875 " clip-rule="nonzero"/></clipPath><clipPath id="6548dd1324"><path d="M 143.699219 31.683594 L 156.332031 31.683594 L 156.332031 51.742188 L 143.699219 51.742188 Z M 143.699219 31.683594 " clip-rule="nonzero"/></clipPath></defs><g clip-path="url(#711c6aadf3)"><path fill="#422819" d="M 121.464844 38.457031 C 121.449219 38.441406 121.523438 38.316406 121.683594 38.082031 C 121.773438 37.953125 121.875 37.8125 121.984375 37.65625 C 122.113281 37.492188 122.238281 37.289062 122.375 37.050781 C 122.953125 36.136719 123.703125 34.683594 124.097656 32.667969 C 124.308594 31.667969 124.398438 30.527344 124.382812 29.289062 C 124.328125 28.050781 124.136719 26.707031 123.726562 25.328125 C 123.3125 23.949219 122.679688 22.53125 121.75 21.203125 C 120.824219 19.882812 119.589844 18.648438 118.121094 17.617188 C 116.652344 16.582031 114.9375 15.742188 113.058594 15.167969 C 111.171875 14.617188 109.125 14.328125 107.011719 14.367188 C 104.90625 14.4375 102.726562 14.816406 100.640625 15.632812 C 98.5625 16.4375 96.566406 17.664062 95.019531 19.371094 C 93.46875 21.050781 92.445312 23.28125 92.230469 25.640625 C 92.015625 27.988281 92.710938 30.425781 94.417969 32.128906 C 96.085938 33.839844 98.601562 34.859375 101.023438 34.59375 C 103.445312 34.34375 105.789062 32.800781 107.085938 30.632812 C 107.242188 30.394531 107.351562 30.132812 107.484375 29.882812 C 107.589844 29.617188 107.714844 29.355469 107.792969 29.078125 C 107.976562 28.53125 108.089844 27.9375 108.132812 27.34375 C 108.238281 26.148438 108.011719 24.890625 107.519531 23.683594 C 106.515625 21.265625 104.40625 19.097656 101.773438 17.6875 C 100.453125 16.988281 99 16.46875 97.480469 16.226562 C 97.097656 16.171875 96.71875 16.128906 96.332031 16.105469 C 95.941406 16.089844 95.539062 16.09375 95.136719 16.082031 C 94.335938 16.101562 93.527344 16.15625 92.714844 16.269531 C 89.460938 16.722656 86.214844 17.988281 83.054688 19.59375 C 79.886719 21.199219 76.757812 23.144531 73.519531 25.011719 C 70.285156 26.886719 66.976562 28.722656 63.59375 30.46875 C 60.21875 32.21875 56.753906 33.851562 53.21875 35.277344 C 49.683594 36.703125 46.085938 37.964844 42.433594 38.890625 C 38.785156 39.816406 35.105469 40.433594 31.464844 40.710938 C 30.554688 40.757812 29.648438 40.800781 28.746094 40.847656 C 27.84375 40.855469 26.945312 40.824219 26.054688 40.816406 C 24.269531 40.800781 22.503906 40.632812 20.785156 40.34375 C 17.351562 39.777344 14.042969 38.558594 11.492188 36.457031 C 8.960938 34.378906 7.195312 31.507812 6.816406 28.515625 C 6.601562 27.03125 6.816406 25.535156 7.292969 24.214844 C 7.804688 22.902344 8.546875 21.726562 9.492188 20.8125 C 10.433594 19.902344 11.542969 19.214844 12.714844 18.882812 C 13.878906 18.550781 15.089844 18.550781 16.144531 18.878906 C 17.203125 19.195312 18.105469 19.765625 18.820312 20.425781 C 19.542969 21.09375 20.082031 21.855469 20.445312 22.628906 C 21.191406 24.191406 21.085938 25.773438 20.640625 26.851562 L 20.636719 26.867188 L 20.617188 26.871094 C 18.339844 27.261719 17.128906 27.46875 17.128906 27.46875 C 17.128906 27.46875 18.292969 27.257812 20.609375 26.835938 C 20.675781 26.621094 20.746094 26.398438 20.820312 26.160156 C 20.871094 25.921875 20.894531 25.664062 20.9375 25.398438 C 20.933594 25.132812 20.945312 24.851562 20.917969 24.566406 C 20.863281 24.28125 20.855469 23.976562 20.75 23.683594 C 20.707031 23.535156 20.660156 23.386719 20.617188 23.230469 C 20.554688 23.082031 20.488281 22.933594 20.425781 22.78125 C 20.308594 22.472656 20.105469 22.191406 19.9375 21.882812 C 19.539062 21.308594 19.054688 20.738281 18.445312 20.246094 C 17.828125 19.761719 17.109375 19.34375 16.292969 19.074219 C 15.480469 18.789062 14.554688 18.722656 13.632812 18.871094 C 11.777344 19.152344 9.945312 20.339844 8.703125 22.117188 C 8.078125 23.003906 7.578125 24.027344 7.304688 25.152344 C 7.023438 26.277344 6.980469 27.488281 7.179688 28.699219 C 7.570312 31.125 8.929688 33.488281 10.90625 35.355469 C 12.886719 37.234375 15.527344 38.539062 18.414062 39.273438 C 21.308594 40.011719 24.445312 40.242188 27.679688 40.167969 C 34.160156 40.105469 41.058594 38.695312 48 36.210938 C 54.945312 33.703125 61.949219 30.179688 69.027344 26.0625 C 69.914062 25.554688 70.800781 25.027344 71.691406 24.5 C 72.585938 23.972656 73.480469 23.4375 74.375 22.890625 C 76.167969 21.8125 77.96875 20.6875 79.839844 19.613281 C 81.707031 18.539062 83.640625 17.507812 85.683594 16.625 C 87.726562 15.753906 89.886719 15.039062 92.152344 14.640625 C 93.289062 14.472656 94.445312 14.332031 95.617188 14.351562 C 96.78125 14.324219 98 14.472656 99.15625 14.753906 C 101.480469 15.332031 103.675781 16.441406 105.554688 17.996094 C 107.410156 19.5625 109.007812 21.601562 109.75 24.085938 C 110.128906 25.316406 110.25 26.648438 110.109375 27.957031 C 109.953125 29.257812 109.539062 30.554688 108.859375 31.691406 C 107.898438 33.289062 106.527344 34.574219 104.945312 35.433594 C 103.375 36.296875 101.566406 36.75 99.804688 36.632812 C 98.050781 36.535156 96.378906 35.96875 94.964844 35.066406 C 93.535156 34.179688 92.359375 32.941406 91.550781 31.511719 C 90.75 30.066406 90.363281 28.46875 90.324219 26.910156 C 90.277344 25.351562 90.566406 23.839844 91.078125 22.445312 C 91.332031 21.75 91.660156 21.089844 92.015625 20.453125 C 92.394531 19.832031 92.808594 19.230469 93.269531 18.695312 C 94.1875 17.613281 95.246094 16.695312 96.375 15.953125 C 97.5 15.207031 98.683594 14.617188 99.882812 14.167969 C 101.085938 13.710938 102.300781 13.378906 103.511719 13.179688 C 104.714844 12.941406 105.917969 12.886719 107.085938 12.863281 C 107.671875 12.886719 108.253906 12.875 108.820312 12.945312 C 109.105469 12.96875 109.386719 13 109.671875 13.023438 C 109.949219 13.066406 110.226562 13.113281 110.503906 13.152344 C 114.914062 13.882812 118.625 15.988281 121.074219 18.640625 C 122.304688 19.964844 123.226562 21.4375 123.839844 22.894531 C 124.457031 24.355469 124.804688 25.800781 124.976562 27.144531 C 125.328125 29.847656 124.910156 32.144531 124.328125 33.859375 C 123.734375 35.585938 122.949219 36.734375 122.402344 37.460938 C 122.117188 37.8125 121.871094 38.058594 121.71875 38.226562 C 121.558594 38.390625 121.476562 38.46875 121.464844 38.457031 Z M 121.464844 38.457031 " fill-opacity="1" fill-rule="nonzero"/></g><path fill="#422819" d="M 138.894531 24.808594 C 138.945312 24.785156 139.046875 24.96875 139.3125 25.210938 C 139.582031 25.441406 140.058594 25.707031 140.714844 25.726562 C 141.351562 25.75 142.195312 25.488281 142.570312 24.746094 C 142.976562 24.035156 142.890625 22.875 142.226562 22.070312 C 141.601562 21.277344 140.289062 20.945312 139.082031 21.320312 C 137.886719 21.664062 136.835938 22.765625 136.292969 24.175781 C 135.738281 25.578125 135.65625 27.277344 136.144531 28.851562 C 136.625 30.433594 137.703125 31.824219 139.246094 32.613281 C 140.007812 33.003906 140.917969 33.296875 141.898438 33.328125 C 142.875 33.371094 143.902344 33.136719 144.84375 32.597656 C 145.328125 32.347656 145.757812 31.972656 146.179688 31.574219 C 146.574219 31.148438 146.960938 30.683594 147.269531 30.148438 C 147.90625 29.09375 148.355469 27.847656 148.519531 26.539062 C 148.933594 23.917969 148.003906 21.089844 146.296875 18.863281 C 144.585938 16.632812 142.085938 14.988281 139.449219 14.339844 C 138.132812 14.011719 136.785156 13.929688 135.503906 14.089844 C 134.21875 14.257812 133.007812 14.648438 131.925781 15.175781 C 130.84375 15.703125 129.871094 16.34375 129.066406 17.070312 C 128.253906 17.785156 127.566406 18.539062 127.039062 19.300781 C 125.949219 20.8125 125.410156 22.257812 125.148438 23.269531 C 124.996094 23.777344 124.949219 24.183594 124.902344 24.457031 C 124.855469 24.730469 124.832031 24.875 124.832031 24.875 C 124.832031 24.875 124.878906 24.523438 124.96875 23.847656 C 125.039062 23.515625 125.132812 23.105469 125.257812 22.621094 C 125.417969 22.148438 125.585938 21.59375 125.867188 21.003906 C 126.40625 19.816406 127.265625 18.433594 128.59375 17.097656 C 129.9375 15.800781 131.746094 14.519531 134.066406 13.84375 C 135.21875 13.511719 136.488281 13.335938 137.8125 13.394531 C 139.140625 13.453125 140.515625 13.761719 141.847656 14.308594 C 144.503906 15.398438 147.078125 17.457031 148.65625 20.417969 C 149.429688 21.894531 149.960938 23.589844 150.015625 25.390625 C 150.054688 27.179688 149.6875 29.035156 148.8125 30.738281 C 147.960938 32.433594 146.503906 33.992188 144.539062 34.78125 C 142.566406 35.5625 140.25 35.40625 138.289062 34.449219 C 137.113281 33.828125 136.125 32.921875 135.417969 31.882812 C 134.707031 30.84375 134.289062 29.691406 134.082031 28.558594 C 133.683594 26.28125 134.175781 24.046875 135.289062 22.371094 C 135.84375 21.527344 136.578125 20.824219 137.414062 20.359375 C 138.265625 19.886719 139.199219 19.695312 140.070312 19.738281 C 140.945312 19.777344 141.78125 20.0625 142.429688 20.554688 C 143.097656 21.042969 143.507812 21.75 143.707031 22.421875 C 143.898438 23.101562 143.894531 23.789062 143.71875 24.390625 C 143.535156 24.992188 143.191406 25.5 142.746094 25.828125 C 142.300781 26.148438 141.816406 26.285156 141.386719 26.320312 C 140.957031 26.355469 140.570312 26.289062 140.246094 26.183594 C 139.59375 25.96875 139.21875 25.5625 139.054688 25.28125 C 138.964844 25.136719 138.921875 25.019531 138.90625 24.9375 C 138.882812 24.855469 138.878906 24.816406 138.894531 24.808594 Z M 138.894531 24.808594 " fill-opacity="1" fill-rule="nonzero"/><g clip-path="url(#acc643ff49)"><path fill="#422819" d="M 9.746094 21.078125 C 9.761719 21.09375 9.710938 21.175781 9.605469 21.316406 C 9.496094 21.457031 9.328125 21.652344 9.148438 21.9375 C 8.773438 22.496094 8.292969 23.382812 8.070312 24.625 C 7.855469 25.859375 7.898438 27.449219 8.515625 29.109375 C 9.121094 30.753906 10.402344 32.402344 12.214844 33.714844 C 14.019531 35.039062 16.324219 36.066406 18.902344 36.785156 C 21.460938 37.488281 24.34375 37.886719 27.164062 37.257812 C 28.570312 36.933594 29.917969 36.375 31.058594 35.453125 C 32.222656 34.554688 33.175781 33.335938 33.765625 31.96875 C 34.050781 31.28125 34.226562 30.554688 34.273438 29.824219 C 34.320312 29.105469 34.246094 28.328125 34.015625 27.6875 C 33.527344 26.363281 32.375 25.207031 30.976562 24.59375 C 29.59375 23.984375 27.804688 23.898438 26.566406 24.921875 C 25.285156 25.910156 24.800781 27.917969 25.339844 29.847656 C 25.597656 30.804688 26.0625 31.75 26.738281 32.519531 C 27.40625 33.269531 28.316406 33.890625 29.34375 34.316406 C 31.402344 35.179688 33.867188 35.292969 36.304688 34.957031 C 38.746094 34.59375 41.238281 33.871094 43.628906 32.890625 C 46.023438 31.90625 48.347656 30.664062 50.597656 29.292969 C 55.101562 26.546875 59.316406 23.320312 63.507812 20.425781 C 65.601562 18.984375 67.6875 17.589844 69.820312 16.429688 C 71.941406 15.261719 74.066406 14.273438 76.144531 13.464844 C 78.238281 12.6875 80.28125 12.097656 82.226562 11.699219 C 82.714844 11.609375 83.199219 11.539062 83.675781 11.460938 C 83.910156 11.425781 84.144531 11.386719 84.378906 11.351562 C 84.613281 11.328125 84.847656 11.308594 85.074219 11.289062 C 85.535156 11.25 85.988281 11.210938 86.425781 11.171875 C 86.871094 11.167969 87.304688 11.164062 87.726562 11.160156 C 91.121094 11.152344 93.816406 11.917969 95.546875 12.664062 C 96.4375 12.984375 97.058594 13.390625 97.5 13.617188 C 97.9375 13.855469 98.167969 13.980469 98.167969 13.980469 C 98.167969 13.980469 97.605469 13.683594 96.527344 13.121094 C 95.976562 12.859375 95.261719 12.617188 94.429688 12.289062 C 93.5625 12.074219 92.578125 11.738281 91.417969 11.601562 C 89.117188 11.238281 86.214844 11.226562 82.933594 11.867188 C 79.648438 12.476562 76.023438 13.804688 72.25 15.738281 C 70.367188 16.71875 68.457031 17.875 66.53125 19.1875 C 64.601562 20.5 62.648438 21.953125 60.621094 23.46875 C 56.558594 26.480469 52.242188 29.851562 47.101562 32.601562 C 44.53125 33.96875 41.746094 35.148438 38.746094 35.917969 C 37.253906 36.324219 35.683594 36.585938 34.070312 36.644531 C 32.460938 36.707031 30.789062 36.539062 29.171875 36 C 28.367188 35.730469 27.585938 35.34375 26.859375 34.859375 C 26.128906 34.375 25.445312 33.746094 24.921875 33.019531 C 24.394531 32.292969 23.980469 31.488281 23.691406 30.625 C 23.40625 29.765625 23.246094 28.851562 23.277344 27.910156 C 23.304688 26.972656 23.515625 26.007812 23.972656 25.125 C 24.425781 24.242188 25.121094 23.480469 25.988281 22.929688 C 26.871094 22.394531 27.898438 22.136719 28.902344 22.125 C 29.90625 22.113281 30.890625 22.324219 31.804688 22.699219 C 32.898438 23.1875 33.863281 23.90625 34.628906 24.796875 C 35.390625 25.683594 35.945312 26.777344 36.15625 27.925781 C 36.367188 29.042969 36.316406 30.175781 36.066406 31.222656 C 35.820312 32.273438 35.378906 33.234375 34.832031 34.089844 C 33.726562 35.800781 32.21875 37.121094 30.535156 37.96875 C 28.832031 38.796875 27.066406 39.164062 25.375 39.234375 C 23.679688 39.316406 22.070312 39.113281 20.578125 38.789062 C 19.082031 38.46875 17.699219 38.003906 16.414062 37.484375 C 13.839844 36.449219 11.648438 35.058594 10.082031 33.390625 C 9.300781 32.554688 8.675781 31.671875 8.222656 30.765625 C 7.769531 29.855469 7.507812 28.945312 7.371094 28.09375 C 7.234375 27.238281 7.230469 26.441406 7.296875 25.722656 C 7.378906 25.007812 7.535156 24.371094 7.730469 23.828125 C 8.128906 22.742188 8.671875 22.03125 9.078125 21.625 C 9.484375 21.21875 9.734375 21.0625 9.746094 21.078125 Z M 9.746094 21.078125 " fill-opacity="1" fill-rule="nonzero"/></g><g clip-path="url(#c20d5b7ce1)"><path fill="#422819" d="M 178.503906 38.457031 C 178.519531 38.441406 178.445312 38.316406 178.285156 38.082031 C 178.191406 37.953125 178.09375 37.8125 177.984375 37.65625 C 177.855469 37.492188 177.726562 37.289062 177.59375 37.050781 C 177.011719 36.136719 176.261719 34.683594 175.871094 32.667969 C 175.65625 31.667969 175.570312 30.527344 175.582031 29.289062 C 175.636719 28.050781 175.828125 26.707031 176.242188 25.328125 C 176.652344 23.949219 177.289062 22.53125 178.21875 21.203125 C 179.140625 19.882812 180.375 18.648438 181.84375 17.617188 C 183.3125 16.582031 185.027344 15.742188 186.90625 15.167969 C 188.792969 14.617188 190.839844 14.328125 192.953125 14.367188 C 195.0625 14.4375 197.238281 14.816406 199.328125 15.632812 C 201.40625 16.4375 203.398438 17.664062 204.945312 19.371094 C 206.5 21.050781 207.523438 23.28125 207.738281 25.640625 C 207.953125 27.988281 207.257812 30.425781 205.550781 32.128906 C 203.882812 33.839844 201.367188 34.859375 198.941406 34.59375 C 196.519531 34.34375 194.175781 32.800781 192.882812 30.632812 C 192.726562 30.394531 192.617188 30.132812 192.480469 29.882812 C 192.378906 29.617188 192.25 29.355469 192.175781 29.078125 C 191.992188 28.53125 191.878906 27.9375 191.832031 27.34375 C 191.730469 26.148438 191.953125 24.890625 192.449219 23.683594 C 193.453125 21.265625 195.5625 19.097656 198.195312 17.6875 C 199.511719 16.988281 200.96875 16.46875 202.488281 16.226562 C 202.867188 16.171875 203.25 16.128906 203.636719 16.105469 C 204.027344 16.089844 204.429688 16.09375 204.828125 16.082031 C 205.628906 16.101562 206.441406 16.15625 207.25 16.269531 C 210.507812 16.722656 213.75 17.988281 216.914062 19.59375 C 220.082031 21.199219 223.207031 23.144531 226.449219 25.011719 C 229.679688 26.886719 232.992188 28.722656 236.371094 30.46875 C 239.75 32.21875 243.210938 33.851562 246.75 35.277344 C 250.285156 36.703125 253.882812 37.964844 257.53125 38.890625 C 261.179688 39.816406 264.863281 40.433594 268.503906 40.710938 C 269.414062 40.757812 270.320312 40.800781 271.222656 40.847656 C 272.125 40.855469 273.023438 40.824219 273.914062 40.816406 C 275.695312 40.800781 277.460938 40.632812 279.183594 40.34375 C 282.617188 39.777344 285.921875 38.558594 288.476562 36.457031 C 291.007812 34.378906 292.773438 31.507812 293.148438 28.515625 C 293.367188 27.03125 293.148438 25.535156 292.671875 24.214844 C 292.164062 22.902344 291.417969 21.726562 290.472656 20.8125 C 289.53125 19.902344 288.425781 19.214844 287.253906 18.882812 C 286.089844 18.550781 284.878906 18.550781 283.824219 18.878906 C 282.765625 19.195312 281.863281 19.765625 281.144531 20.425781 C 280.425781 21.09375 279.886719 21.855469 279.519531 22.628906 C 278.777344 24.191406 278.882812 25.773438 279.324219 26.851562 L 279.332031 26.867188 L 279.351562 26.871094 C 281.628906 27.261719 282.839844 27.46875 282.839844 27.46875 C 282.839844 27.46875 281.675781 27.257812 279.355469 26.835938 L 279.359375 26.835938 C 279.289062 26.621094 279.222656 26.398438 279.148438 26.160156 C 279.097656 25.921875 279.070312 25.664062 279.03125 25.398438 C 279.035156 25.132812 279.023438 24.851562 279.050781 24.566406 C 279.105469 24.28125 279.113281 23.976562 279.21875 23.683594 C 279.261719 23.535156 279.304688 23.386719 279.351562 23.230469 C 279.414062 23.082031 279.476562 22.933594 279.542969 22.78125 C 279.65625 22.472656 279.863281 22.191406 280.027344 21.882812 C 280.429688 21.308594 280.914062 20.738281 281.523438 20.246094 C 282.136719 19.761719 282.855469 19.34375 283.671875 19.074219 C 284.488281 18.789062 285.410156 18.722656 286.332031 18.871094 C 288.191406 19.152344 290.019531 20.339844 291.265625 22.117188 C 291.886719 23.003906 292.390625 24.027344 292.664062 25.152344 C 292.945312 26.277344 292.988281 27.488281 292.789062 28.699219 C 292.394531 31.125 291.035156 33.488281 289.0625 35.355469 C 287.082031 37.234375 284.441406 38.539062 281.554688 39.273438 C 278.660156 40.011719 275.523438 40.242188 272.289062 40.167969 C 265.808594 40.105469 258.90625 38.695312 251.964844 36.210938 C 245.023438 33.703125 238.019531 30.179688 230.941406 26.0625 C 230.050781 25.554688 229.164062 25.027344 228.273438 24.5 C 227.382812 23.972656 226.488281 23.4375 225.59375 22.890625 C 223.796875 21.8125 221.996094 20.6875 220.128906 19.613281 C 218.257812 18.539062 216.324219 17.507812 214.285156 16.625 C 212.242188 15.753906 210.082031 15.039062 207.8125 14.640625 C 206.675781 14.472656 205.519531 14.332031 204.351562 14.351562 C 203.1875 14.324219 201.96875 14.472656 200.8125 14.753906 C 198.488281 15.332031 196.292969 16.441406 194.414062 17.996094 C 192.558594 19.5625 190.957031 21.601562 190.21875 24.085938 C 189.835938 25.316406 189.714844 26.648438 189.859375 27.957031 C 190.015625 29.257812 190.429688 30.554688 191.109375 31.691406 C 192.070312 33.289062 193.441406 34.574219 195.019531 35.433594 C 196.589844 36.296875 198.398438 36.75 200.160156 36.632812 C 201.917969 36.535156 203.585938 35.96875 205.003906 35.066406 C 206.429688 34.179688 207.609375 32.941406 208.417969 31.511719 C 209.214844 30.066406 209.605469 28.46875 209.644531 26.910156 C 209.6875 25.351562 209.398438 23.839844 208.890625 22.445312 C 208.632812 21.75 208.308594 21.089844 207.949219 20.453125 C 207.570312 19.832031 207.160156 19.230469 206.695312 18.695312 C 205.777344 17.613281 204.71875 16.695312 203.59375 15.953125 C 202.46875 15.207031 201.285156 14.617188 200.082031 14.167969 C 198.882812 13.710938 197.667969 13.378906 196.457031 13.179688 C 195.25 12.941406 194.050781 12.886719 192.878906 12.863281 C 192.292969 12.886719 191.714844 12.875 191.144531 12.945312 C 190.859375 12.96875 190.578125 13 190.296875 13.023438 C 190.019531 13.066406 189.742188 13.113281 189.464844 13.152344 C 185.050781 13.882812 181.34375 15.988281 178.894531 18.640625 C 177.664062 19.964844 176.742188 21.4375 176.128906 22.894531 C 175.507812 24.355469 175.164062 25.800781 174.988281 27.144531 C 174.640625 29.847656 175.058594 32.144531 175.640625 33.859375 C 176.230469 35.585938 177.019531 36.734375 177.5625 37.460938 C 177.851562 37.8125 178.097656 38.058594 178.25 38.226562 C 178.40625 38.390625 178.492188 38.46875 178.503906 38.457031 Z M 178.503906 38.457031 " fill-opacity="1" fill-rule="nonzero"/></g><path fill="#422819" d="M 161.074219 24.808594 C 161.023438 24.785156 160.921875 24.96875 160.65625 25.210938 C 160.386719 25.441406 159.910156 25.707031 159.253906 25.726562 C 158.613281 25.75 157.773438 25.488281 157.394531 24.746094 C 156.988281 24.035156 157.078125 22.875 157.742188 22.070312 C 158.363281 21.277344 159.679688 20.945312 160.886719 21.320312 C 162.082031 21.664062 163.128906 22.765625 163.671875 24.175781 C 164.230469 25.578125 164.3125 27.277344 163.820312 28.851562 C 163.339844 30.433594 162.261719 31.824219 160.722656 32.613281 C 159.960938 33.003906 159.050781 33.296875 158.070312 33.328125 C 157.09375 33.371094 156.066406 33.136719 155.121094 32.597656 C 154.640625 32.347656 154.210938 31.972656 153.789062 31.574219 C 153.390625 31.148438 153.003906 30.683594 152.699219 30.148438 C 152.058594 29.09375 151.613281 27.847656 151.445312 26.539062 C 151.035156 23.917969 151.960938 21.089844 153.671875 18.863281 C 155.378906 16.632812 157.878906 14.988281 160.515625 14.339844 C 161.835938 14.011719 163.179688 13.929688 164.464844 14.089844 C 165.75 14.257812 166.957031 14.648438 168.039062 15.175781 C 169.125 15.703125 170.097656 16.34375 170.902344 17.070312 C 171.710938 17.785156 172.398438 18.539062 172.929688 19.300781 C 174.019531 20.8125 174.558594 22.257812 174.820312 23.269531 C 174.972656 23.777344 175.019531 24.183594 175.066406 24.457031 C 175.109375 24.730469 175.132812 24.875 175.132812 24.875 C 175.132812 24.875 175.085938 24.523438 174.996094 23.847656 C 174.929688 23.515625 174.835938 23.105469 174.707031 22.621094 C 174.550781 22.148438 174.382812 21.59375 174.097656 21.003906 C 173.558594 19.816406 172.699219 18.433594 171.375 17.097656 C 170.03125 15.800781 168.222656 14.519531 165.902344 13.84375 C 164.75 13.511719 163.480469 13.335938 162.152344 13.394531 C 160.824219 13.453125 159.453125 13.761719 158.117188 14.308594 C 155.460938 15.398438 152.886719 17.457031 151.308594 20.417969 C 150.535156 21.894531 150.007812 23.589844 149.949219 25.390625 C 149.914062 27.179688 150.28125 29.035156 151.152344 30.738281 C 152.003906 32.433594 153.464844 33.992188 155.429688 34.78125 C 157.402344 35.5625 159.71875 35.40625 161.675781 34.449219 C 162.851562 33.828125 163.839844 32.921875 164.550781 31.882812 C 165.257812 30.84375 165.679688 29.691406 165.886719 28.558594 C 166.285156 26.28125 165.789062 24.046875 164.675781 22.371094 C 164.121094 21.527344 163.390625 20.824219 162.550781 20.359375 C 161.699219 19.886719 160.769531 19.695312 159.898438 19.738281 C 159.023438 19.777344 158.1875 20.0625 157.535156 20.554688 C 156.867188 21.042969 156.457031 21.75 156.261719 22.421875 C 156.066406 23.101562 156.074219 23.789062 156.25 24.390625 C 156.433594 24.992188 156.773438 25.5 157.222656 25.828125 C 157.667969 26.148438 158.152344 26.285156 158.578125 26.320312 C 159.011719 26.355469 159.398438 26.289062 159.722656 26.183594 C 160.375 25.96875 160.746094 25.5625 160.914062 25.28125 C 161.003906 25.136719 161.042969 25.019531 161.0625 24.9375 C 161.085938 24.855469 161.085938 24.816406 161.074219 24.808594 Z M 161.074219 24.808594 " fill-opacity="1" fill-rule="nonzero"/><g clip-path="url(#e0b6a1111d)"><path fill="#422819" d="M 290.222656 21.078125 C 290.207031 21.09375 290.253906 21.175781 290.363281 21.316406 C 290.46875 21.457031 290.640625 21.652344 290.820312 21.9375 C 291.195312 22.496094 291.675781 23.382812 291.898438 24.625 C 292.109375 25.859375 292.070312 27.449219 291.453125 29.109375 C 290.84375 30.753906 289.566406 32.402344 287.753906 33.714844 C 285.949219 35.039062 283.640625 36.066406 281.066406 36.785156 C 278.507812 37.488281 275.621094 37.886719 272.804688 37.257812 C 271.394531 36.933594 270.050781 36.375 268.90625 35.453125 C 267.746094 34.554688 266.792969 33.335938 266.203125 31.96875 C 265.917969 31.28125 265.742188 30.554688 265.691406 29.824219 C 265.644531 29.105469 265.722656 28.328125 265.953125 27.6875 C 266.441406 26.363281 267.59375 25.207031 268.992188 24.59375 C 270.371094 23.984375 272.160156 23.898438 273.402344 24.921875 C 274.679688 25.910156 275.167969 27.917969 274.628906 29.847656 C 274.367188 30.804688 273.902344 31.75 273.226562 32.519531 C 272.5625 33.269531 271.648438 33.890625 270.621094 34.316406 C 268.566406 35.179688 266.101562 35.292969 263.664062 34.957031 C 261.21875 34.59375 258.730469 33.871094 256.339844 32.890625 C 253.941406 31.90625 251.617188 30.664062 249.367188 29.292969 C 244.867188 26.546875 240.652344 23.320312 236.457031 20.425781 C 234.363281 18.984375 232.277344 17.589844 230.148438 16.429688 C 228.027344 15.261719 225.902344 14.273438 223.824219 13.464844 C 221.730469 12.6875 219.6875 12.097656 217.738281 11.699219 C 217.25 11.609375 216.765625 11.539062 216.292969 11.460938 C 216.054688 11.425781 215.820312 11.386719 215.589844 11.351562 C 215.355469 11.328125 215.121094 11.308594 214.890625 11.289062 C 214.433594 11.25 213.980469 11.210938 213.539062 11.171875 C 213.097656 11.167969 212.664062 11.164062 212.238281 11.160156 C 208.84375 11.152344 206.148438 11.917969 204.421875 12.664062 C 203.527344 12.984375 202.910156 13.390625 202.464844 13.617188 C 202.027344 13.855469 201.796875 13.980469 201.796875 13.980469 C 201.796875 13.980469 202.359375 13.683594 203.441406 13.121094 C 203.988281 12.859375 204.707031 12.617188 205.539062 12.289062 C 206.40625 12.074219 207.386719 11.738281 208.550781 11.601562 C 210.847656 11.238281 213.75 11.226562 217.03125 11.867188 C 220.320312 12.476562 223.941406 13.804688 227.71875 15.738281 C 229.601562 16.71875 231.511719 17.875 233.4375 19.1875 C 235.363281 20.5 237.316406 21.953125 239.347656 23.46875 C 243.40625 26.480469 247.726562 29.851562 252.867188 32.601562 C 255.433594 33.96875 258.21875 35.148438 261.222656 35.917969 C 262.714844 36.324219 264.285156 36.585938 265.898438 36.644531 C 267.507812 36.707031 269.179688 36.539062 270.792969 36 C 271.601562 35.730469 272.382812 35.34375 273.105469 34.859375 C 273.835938 34.375 274.519531 33.746094 275.046875 33.019531 C 275.574219 32.292969 275.988281 31.488281 276.273438 30.625 C 276.5625 29.765625 276.722656 28.851562 276.691406 27.910156 C 276.664062 26.972656 276.453125 26.007812 275.996094 25.125 C 275.542969 24.242188 274.847656 23.480469 273.976562 22.929688 C 273.097656 22.394531 272.066406 22.136719 271.066406 22.125 C 270.058594 22.113281 269.074219 22.324219 268.164062 22.699219 C 267.066406 23.1875 266.101562 23.90625 265.339844 24.796875 C 264.574219 25.683594 264.023438 26.777344 263.808594 27.925781 C 263.597656 29.042969 263.652344 30.175781 263.902344 31.222656 C 264.148438 32.273438 264.585938 33.234375 265.136719 34.089844 C 266.238281 35.800781 267.75 37.121094 269.433594 37.96875 C 271.132812 38.796875 272.902344 39.164062 274.59375 39.234375 C 276.285156 39.316406 277.894531 39.113281 279.390625 38.789062 C 280.886719 38.46875 282.265625 38.003906 283.554688 37.484375 C 286.125 36.449219 288.316406 35.058594 289.886719 33.390625 C 290.667969 32.554688 291.289062 31.671875 291.746094 30.765625 C 292.195312 29.855469 292.460938 28.945312 292.59375 28.09375 C 292.730469 27.238281 292.738281 26.441406 292.671875 25.722656 C 292.589844 25.007812 292.433594 24.371094 292.238281 23.828125 C 291.835938 22.742188 291.296875 22.03125 290.886719 21.625 C 290.480469 21.21875 290.234375 21.0625 290.222656 21.078125 Z M 290.222656 21.078125 " fill-opacity="1" fill-rule="nonzero"/></g><g clip-path="url(#6548dd1324)"><path fill="#8a172e" d="M 149.710938 31.949219 C 147.839844 38.394531 144.925781 40.820312 143.902344 41.511719 C 143.742188 41.617188 143.742188 41.828125 143.902344 41.9375 C 144.910156 42.609375 147.820312 45.050781 149.710938 51.496094 C 149.78125 51.742188 150.140625 51.742188 150.214844 51.496094 C 152.046875 45.050781 155.066406 42.625 156.128906 41.9375 C 156.289062 41.828125 156.289062 41.597656 156.128906 41.492188 C 155.066406 40.820312 152.046875 38.378906 150.214844 31.933594 C 150.140625 31.683594 149.78125 31.683594 149.710938 31.949219 Z M 149.710938 31.949219 " fill-opacity="1" fill-rule="nonzero"/></g></svg>