<svg xmlns="http://www.w3.org/2000/svg" xmlns:xlink="http://www.w3.org/1999/xlink" width="100" zoomAndPan="magnify" viewBox="0 0 75 74.999997" height="100" preserveAspectRatio="xMidYMid meet" version="1.0"><defs><clipPath id="24ce3c5a6e"><path d="M 3.1875 0 L 72.1875 0 L 72.1875 75 L 3.1875 75 Z M 3.1875 0 " clip-rule="nonzero"/></clipPath></defs><g clip-path="url(#24ce3c5a6e)"><path fill="#422819" d="M 37.261719 3.136719 C 37.277344 3.035156 37.300781 2.9375 37.324219 2.839844 C 37.472656 2.257812 37.730469 1.765625 38.125 1.425781 C 38.511719 1.085938 39.0625 0.859375 39.871094 0.859375 C 40.105469 0.859375 40.296875 0.667969 40.296875 0.433594 C 40.296875 0.199219 40.105469 0.0117188 39.871094 0.0117188 C 38.890625 0.0117188 38.125 0.292969 37.5625 0.789062 C 37.003906 1.277344 36.675781 1.9375 36.5 2.632812 C 36.453125 2.808594 36.417969 2.988281 36.390625 3.171875 C 34.285156 3.382812 32.683594 4.492188 32.683594 6.6875 C 32.683594 7.984375 33.242188 9.152344 34.136719 9.964844 L 28.316406 9.964844 C 25.257812 9.964844 22.78125 12.429688 22.78125 15.472656 L 22.78125 27.332031 C 22.78125 28.761719 23.328125 30.0625 24.222656 31.039062 L 18.203125 31.039062 C 15.144531 31.039062 12.664062 33.503906 12.664062 36.546875 L 12.664062 48.40625 C 12.664062 49.835938 13.210938 51.136719 14.105469 52.113281 L 8.722656 52.113281 C 5.667969 52.113281 3.1875 54.582031 3.1875 57.621094 L 3.1875 69.484375 C 3.1875 72.523438 5.667969 74.988281 8.722656 74.988281 L 66.652344 74.988281 C 69.707031 74.988281 72.1875 72.523438 72.1875 69.484375 L 72.1875 57.621094 C 72.1875 54.582031 69.707031 52.113281 66.652344 52.113281 L 60.203125 52.113281 C 61.101562 51.136719 61.644531 49.835938 61.644531 48.40625 L 61.644531 36.546875 C 61.644531 33.503906 59.167969 31.039062 56.109375 31.039062 L 50.089844 31.039062 C 50.984375 30.0625 51.53125 28.761719 51.53125 27.332031 L 51.53125 15.472656 C 51.53125 12.429688 49.050781 9.964844 45.992188 9.964844 L 40.171875 9.964844 C 41.066406 9.152344 41.628906 7.984375 41.628906 6.6875 C 41.628906 4.265625 39.679688 3.164062 37.261719 3.136719 Z M 36.324219 4.671875 C 36.359375 5.421875 36.488281 6.128906 36.636719 6.6875 C 36.699219 6.910156 36.929688 7.046875 37.160156 6.984375 C 37.386719 6.925781 37.519531 6.691406 37.460938 6.46875 C 37.320312 5.945312 37.207031 5.292969 37.171875 4.617188 C 38.207031 4.621094 38.976562 4.855469 39.445312 5.191406 C 39.851562 5.484375 40.136719 5.917969 40.136719 6.6875 C 40.136719 8.320312 38.804688 9.648438 37.15625 9.648438 C 35.507812 9.648438 34.171875 8.320312 34.171875 6.6875 C 34.171875 5.917969 34.457031 5.484375 34.867188 5.191406 C 35.203125 4.949219 35.691406 4.761719 36.324219 4.671875 Z M 28.316406 11.871094 C 26.398438 11.871094 24.828125 13.355469 24.703125 15.234375 C 25.828125 16.011719 28 16.710938 30.960938 15.351562 C 35.039062 13.480469 38.667969 15.3125 39.992188 16.480469 L 39.996094 16.480469 C 40.90625 17.289062 43.4375 18.460938 46.164062 16.457031 C 47.640625 15.371094 48.769531 15.082031 49.613281 15.351562 C 49.546875 13.417969 47.953125 11.871094 45.992188 11.871094 Z M 49.613281 16.292969 C 49.542969 16.238281 49.464844 16.199219 49.375 16.167969 C 48.941406 16.015625 48.109375 16.082031 46.671875 17.136719 C 43.523438 19.449219 40.539062 18.101562 39.425781 17.113281 C 38.265625 16.089844 34.992188 14.433594 31.316406 16.121094 C 28.421875 17.453125 26.125 17.003906 24.695312 16.222656 L 24.695312 27.332031 C 24.695312 29.320312 26.316406 30.933594 28.316406 30.933594 L 45.992188 30.933594 C 47.992188 30.933594 49.613281 29.320312 49.613281 27.332031 Z M 56.109375 32.945312 C 58.105469 32.945312 59.726562 34.554688 59.730469 36.542969 C 59.722656 36.539062 59.71875 36.539062 59.714844 36.535156 C 59.703125 36.535156 59.695312 36.53125 59.683594 36.527344 C 59.488281 36.457031 59.285156 36.34375 59.007812 36.1875 C 58.949219 36.152344 58.886719 36.117188 58.820312 36.078125 C 58.085938 35.664062 57.089844 35.171875 55.46875 35.171875 C 54.140625 35.171875 53.433594 35.8125 52.746094 36.4375 C 52.714844 36.464844 52.6875 36.492188 52.65625 36.519531 C 51.957031 37.152344 51.179688 37.816406 49.59375 38.089844 C 47.765625 38.402344 46.246094 37.679688 43.910156 36.574219 L 43.832031 36.535156 C 43.570312 36.410156 43.074219 36.265625 42.480469 36.148438 C 41.871094 36.03125 41.125 35.933594 40.351562 35.917969 C 38.832031 35.890625 37.039062 36.167969 36.027344 37.390625 C 35.671875 37.816406 35.128906 38.082031 34.445312 38.207031 C 33.761719 38.328125 32.972656 38.296875 32.191406 38.160156 C 31.410156 38.027344 30.65625 37.785156 30.042969 37.503906 C 29.414062 37.214844 28.996094 36.910156 28.824219 36.671875 C 28.234375 35.859375 26.976562 35.320312 25.410156 35.222656 C 23.816406 35.125 21.824219 35.476562 19.664062 36.539062 C 17.148438 37.773438 15.441406 37.21875 14.582031 36.582031 L 14.582031 36.546875 C 14.582031 34.558594 16.203125 32.945312 18.203125 32.945312 Z M 59.402344 37.328125 C 59.507812 37.363281 59.617188 37.394531 59.730469 37.410156 L 59.730469 48.40625 C 59.730469 50.398438 58.109375 52.007812 56.109375 52.007812 L 18.203125 52.007812 C 16.203125 52.007812 14.582031 50.398438 14.582031 48.40625 L 14.582031 37.582031 C 15.761719 38.210938 17.625 38.484375 20.039062 37.296875 C 22.085938 36.292969 23.929688 35.980469 25.355469 36.070312 C 26.808594 36.160156 27.757812 36.652344 28.132812 37.164062 C 28.4375 37.585938 29.023438 37.96875 29.6875 38.273438 C 30.367188 38.585938 31.195312 38.847656 32.042969 38.996094 C 32.890625 39.144531 33.785156 39.183594 34.59375 39.039062 C 35.402344 38.894531 36.160156 38.558594 36.683594 37.929688 C 37.429688 37.03125 38.855469 36.738281 40.332031 36.765625 C 41.054688 36.777344 41.75 36.867188 42.316406 36.980469 C 42.890625 37.09375 43.300781 37.222656 43.46875 37.300781 C 43.539062 37.332031 43.609375 37.367188 43.675781 37.398438 L 43.679688 37.402344 L 43.683594 37.402344 C 45.886719 38.449219 47.636719 39.28125 49.738281 38.921875 C 51.5625 38.613281 52.484375 37.820312 53.230469 37.144531 L 53.285156 37.097656 C 53.988281 36.460938 54.472656 36.015625 55.46875 36.015625 C 56.882812 36.015625 57.730469 36.4375 58.402344 36.816406 C 58.453125 36.847656 58.507812 36.878906 58.5625 36.90625 C 58.839844 37.066406 59.125 37.230469 59.402344 37.328125 Z M 8.722656 54.019531 L 66.652344 54.019531 C 68.648438 54.019531 70.269531 55.632812 70.269531 57.621094 L 70.269531 58.554688 C 69.359375 58.628906 67.914062 58.496094 66.441406 57.628906 C 65.753906 57.222656 65.144531 57.003906 64.542969 56.945312 C 63.9375 56.890625 63.382812 57.003906 62.808594 57.210938 C 62.308594 57.386719 61.777344 57.640625 61.179688 57.925781 C 61.101562 57.964844 61.019531 58.003906 60.933594 58.042969 C 60.230469 58.375 59.414062 58.753906 58.40625 59.132812 C 56.433594 59.871094 54.929688 59.859375 53.640625 59.503906 C 52.363281 59.148438 51.273438 58.449219 50.097656 57.695312 L 50.003906 57.636719 C 49.371094 57.230469 48.804688 57.003906 48.257812 56.945312 C 47.707031 56.890625 47.21875 57.007812 46.746094 57.222656 C 46.289062 57.433594 45.832031 57.742188 45.351562 58.078125 C 45.308594 58.105469 45.265625 58.136719 45.222656 58.167969 C 44.769531 58.480469 44.277344 58.820312 43.699219 59.164062 C 42.550781 59.839844 41.371094 59.703125 40.238281 59.257812 C 39.671875 59.035156 39.128906 58.742188 38.625 58.441406 C 38.4375 58.332031 38.25 58.214844 38.066406 58.101562 L 38.0625 58.101562 C 37.773438 57.921875 37.496094 57.753906 37.253906 57.621094 C 36.820312 57.382812 36.398438 57.253906 35.972656 57.234375 C 35.546875 57.214844 35.144531 57.308594 34.75 57.476562 C 33.984375 57.808594 33.214844 58.453125 32.347656 59.210938 C 31.640625 59.828125 30.4375 59.878906 28.949219 59.5 C 27.492188 59.128906 25.90625 58.382812 24.589844 57.625 C 23.144531 56.792969 21.882812 56.785156 20.667969 57.207031 C 19.722656 57.539062 18.789062 58.136719 17.835938 58.75 L 17.832031 58.75 C 17.617188 58.890625 17.394531 59.03125 17.175781 59.167969 C 16.085938 59.851562 14.878906 59.867188 13.585938 59.503906 C 12.28125 59.136719 10.941406 58.398438 9.632812 57.628906 C 8.464844 56.941406 7.257812 56.960938 6.253906 57.25 C 5.835938 57.371094 5.449219 57.539062 5.105469 57.722656 L 5.105469 57.621094 C 5.105469 55.632812 6.726562 54.019531 8.722656 54.019531 Z M 5.105469 58.710938 L 5.105469 69.484375 C 5.105469 71.472656 6.726562 73.082031 8.722656 73.082031 L 66.652344 73.082031 C 68.648438 73.082031 70.269531 71.472656 70.269531 69.484375 L 70.269531 59.40625 C 69.191406 59.476562 67.605469 59.296875 66.007812 58.355469 C 65.390625 57.996094 64.902344 57.832031 64.464844 57.789062 C 64.023438 57.75 63.597656 57.828125 63.09375 58.007812 C 62.640625 58.167969 62.152344 58.402344 61.546875 58.6875 C 61.46875 58.726562 61.386719 58.765625 61.300781 58.804688 C 60.589844 59.144531 59.75 59.535156 58.707031 59.925781 C 56.582031 60.722656 54.890625 60.730469 53.414062 60.320312 C 52.007812 59.929688 50.820312 59.167969 49.675781 58.433594 L 49.664062 58.425781 C 49.625 58.398438 49.582031 58.375 49.542969 58.347656 C 48.976562 57.988281 48.539062 57.828125 48.167969 57.789062 C 47.804688 57.75 47.472656 57.824219 47.101562 57.992188 C 46.722656 58.167969 46.328125 58.433594 45.839844 58.773438 C 45.796875 58.800781 45.75 58.832031 45.707031 58.863281 C 45.257812 59.175781 44.742188 59.535156 44.132812 59.890625 C 42.671875 60.753906 41.191406 60.542969 39.925781 60.046875 C 39.296875 59.800781 38.707031 59.476562 38.1875 59.167969 C 37.972656 59.039062 37.773438 58.917969 37.585938 58.804688 C 37.3125 58.636719 37.070312 58.488281 36.84375 58.363281 C 36.503906 58.175781 36.207031 58.09375 35.933594 58.082031 C 35.660156 58.070312 35.386719 58.125 35.089844 58.253906 C 34.46875 58.523438 33.800781 59.070312 32.910156 59.847656 C 31.859375 60.761719 30.269531 60.710938 28.738281 60.320312 C 27.175781 59.925781 25.511719 59.136719 24.164062 58.359375 C 22.945312 57.65625 21.945312 57.664062 20.949219 58.007812 C 20.109375 58.300781 19.285156 58.828125 18.335938 59.4375 C 18.109375 59.582031 17.875 59.734375 17.628906 59.886719 C 16.269531 60.738281 14.789062 60.722656 13.355469 60.320312 C 11.929688 59.917969 10.503906 59.125 9.199219 58.355469 C 8.28125 57.816406 7.332031 57.820312 6.488281 58.0625 C 5.957031 58.21875 5.480469 58.460938 5.105469 58.710938 Z M 5.105469 58.710938 " fill-opacity="1" fill-rule="evenodd"/></g></svg>