<svg xmlns="http://www.w3.org/2000/svg" xmlns:xlink="http://www.w3.org/1999/xlink" width="100" zoomAndPan="magnify" viewBox="0 0 75 74.999997" height="100" preserveAspectRatio="xMidYMid meet" version="1.0"><defs><clipPath id="28a571cc50"><path d="M 66 24 L 72.421875 24 L 72.421875 34 L 66 34 Z M 66 24 " clip-rule="nonzero"/></clipPath><clipPath id="1fefba09c7"><path d="M 2.671875 39 L 72 39 L 72 75 L 2.671875 75 Z M 2.671875 39 " clip-rule="nonzero"/></clipPath></defs><path fill="#422819" d="M 69.011719 43.902344 L 67.148438 43.386719 C 70.027344 32.941406 68.199219 17.933594 57.390625 9.695312 C 51.222656 4.980469 43.023438 3.253906 34.328125 4.847656 C 24.621094 6.625 15.707031 12.351562 11.085938 19.792969 C 5.933594 28.09375 6.847656 37.441406 7.496094 41.078125 C 7.578125 41.558594 7.679688 42.074219 7.8125 42.621094 L 5.933594 43.039062 C 5.800781 42.472656 5.699219 41.925781 5.597656 41.410156 C 4.917969 37.558594 3.953125 27.664062 9.457031 18.777344 C 14.363281 10.890625 23.753906 4.832031 33.980469 2.957031 C 43.207031 1.261719 51.9375 3.105469 58.554688 8.167969 C 63.757812 12.136719 67.433594 17.914062 69.179688 24.855469 C 70.757812 31.050781 70.691406 37.808594 69.011719 43.902344 Z M 69.011719 43.902344 " fill-opacity="1" fill-rule="nonzero"/><path fill="#422819" d="M 33.28125 15.988281 L 33.367188 8.351562 C 33.367188 7.820312 33.8125 7.390625 34.328125 7.390625 C 34.863281 7.390625 35.292969 7.820312 35.277344 8.351562 L 35.195312 15.988281 C 35.195312 16.519531 34.746094 16.953125 34.230469 16.953125 C 33.699219 16.9375 33.265625 16.519531 33.28125 15.988281 Z M 33.28125 15.988281 " fill-opacity="1" fill-rule="nonzero"/><path fill="#422819" d="M 40.597656 6.324219 L 34.445312 1.84375 C 34.03125 1.527344 33.929688 0.945312 34.246094 0.515625 C 34.5625 0.0820312 35.144531 0 35.59375 0.300781 L 41.746094 4.78125 C 42.160156 5.097656 42.261719 5.679688 41.945312 6.109375 C 41.613281 6.542969 41.03125 6.625 40.597656 6.324219 Z M 40.597656 6.324219 " fill-opacity="1" fill-rule="nonzero"/><path fill="#422819" d="M 45.886719 8.785156 L 40.03125 13.714844 C 39.617188 14.0625 39.019531 13.996094 38.703125 13.597656 C 38.371094 13.199219 38.417969 12.585938 38.820312 12.253906 L 44.6875 7.324219 C 45.105469 6.972656 45.703125 7.039062 46.019531 7.4375 C 46.351562 7.855469 46.300781 8.453125 45.886719 8.785156 Z M 45.886719 8.785156 " fill-opacity="1" fill-rule="nonzero"/><path fill="#422819" d="M 27.398438 7.921875 L 19.796875 8.632812 C 19.265625 8.683594 18.800781 8.300781 18.765625 7.769531 C 18.71875 7.238281 19.117188 6.773438 19.648438 6.742188 L 27.246094 6.027344 C 27.777344 5.976562 28.246094 6.359375 28.277344 6.890625 C 28.3125 7.40625 27.929688 7.886719 27.398438 7.921875 Z M 27.398438 7.921875 " fill-opacity="1" fill-rule="nonzero"/><path fill="#422819" d="M 20.398438 13.265625 L 16.90625 20.074219 C 16.65625 20.554688 16.074219 20.738281 15.625 20.488281 C 15.160156 20.238281 14.976562 19.675781 15.210938 19.210938 L 18.699219 12.402344 C 18.949219 11.921875 19.53125 11.738281 19.980469 11.988281 C 20.445312 12.203125 20.628906 12.785156 20.398438 13.265625 Z M 20.398438 13.265625 " fill-opacity="1" fill-rule="nonzero"/><path fill="#422819" d="M 40.597656 25.953125 L 35.09375 20.65625 C 34.710938 20.289062 34.695312 19.675781 35.078125 19.308594 C 35.445312 18.929688 36.058594 18.929688 36.425781 19.292969 L 41.910156 24.589844 C 42.292969 24.957031 42.308594 25.570312 41.929688 25.933594 C 41.5625 26.316406 40.980469 26.332031 40.597656 25.953125 Z M 40.597656 25.953125 " fill-opacity="1" fill-rule="nonzero"/><path fill="#422819" d="M 26.664062 19.507812 L 20.082031 23.410156 C 19.617188 23.675781 19.050781 23.527344 18.765625 23.078125 C 18.5 22.632812 18.632812 22.050781 19.101562 21.785156 L 25.667969 17.882812 C 26.117188 17.617188 26.699219 17.765625 26.980469 18.214844 C 27.246094 18.644531 27.097656 19.242188 26.664062 19.507812 Z M 26.664062 19.507812 " fill-opacity="1" fill-rule="nonzero"/><path fill="#422819" d="M 44.871094 28.277344 L 39.132812 33.308594 C 38.734375 33.65625 38.121094 33.621094 37.789062 33.222656 C 37.4375 32.824219 37.472656 32.226562 37.871094 31.894531 L 43.605469 26.863281 C 44.007812 26.515625 44.621094 26.550781 44.953125 26.949219 C 45.304688 27.332031 45.269531 27.929688 44.871094 28.277344 Z M 44.871094 28.277344 " fill-opacity="1" fill-rule="nonzero"/><path fill="#422819" d="M 34.128906 31.183594 L 29.191406 25.355469 C 28.84375 24.957031 28.910156 24.339844 29.308594 24.027344 C 29.722656 23.695312 30.324219 23.742188 30.65625 24.140625 L 35.59375 29.953125 C 35.941406 30.351562 35.875 30.964844 35.476562 31.28125 C 35.078125 31.628906 34.480469 31.582031 34.128906 31.183594 Z M 34.128906 31.183594 " fill-opacity="1" fill-rule="nonzero"/><path fill="#422819" d="M 11.367188 16.652344 L 13.179688 24.042969 C 13.3125 24.558594 12.980469 25.070312 12.464844 25.1875 C 11.949219 25.320312 11.433594 24.988281 11.320312 24.492188 L 9.507812 17.101562 C 9.375 16.585938 9.707031 16.074219 10.222656 15.957031 C 10.71875 15.839844 11.234375 16.15625 11.367188 16.652344 Z M 11.367188 16.652344 " fill-opacity="1" fill-rule="nonzero"/><path fill="#422819" d="M 22.941406 25.636719 L 27.511719 31.746094 C 27.828125 32.179688 27.746094 32.777344 27.3125 33.074219 C 26.882812 33.390625 26.28125 33.308594 25.984375 32.875 L 21.394531 26.765625 C 21.078125 26.332031 21.160156 25.734375 21.59375 25.4375 C 22.027344 25.121094 22.640625 25.203125 22.941406 25.636719 Z M 22.941406 25.636719 " fill-opacity="1" fill-rule="nonzero"/><path fill="#422819" d="M 24.121094 36.148438 L 31.753906 35.582031 C 32.285156 35.550781 32.75 35.949219 32.785156 36.460938 C 32.816406 36.992188 32.417969 37.441406 31.886719 37.492188 L 24.253906 38.054688 C 23.722656 38.089844 23.257812 37.691406 23.222656 37.175781 C 23.191406 36.644531 23.589844 36.195312 24.121094 36.148438 Z M 24.121094 36.148438 " fill-opacity="1" fill-rule="nonzero"/><path fill="#422819" d="M 18.433594 36.394531 L 11.867188 40.265625 C 11.402344 40.53125 10.835938 40.378906 10.570312 39.933594 C 10.304688 39.46875 10.453125 38.886719 10.902344 38.636719 L 17.46875 34.769531 C 17.9375 34.503906 18.5 34.652344 18.765625 35.101562 C 19.050781 35.53125 18.882812 36.128906 18.433594 36.394531 Z M 18.433594 36.394531 " fill-opacity="1" fill-rule="nonzero"/><path fill="#422819" d="M 38.1875 38.804688 C 38.1875 39.003906 38.121094 39.183594 38.003906 39.367188 L 35.675781 42.539062 C 35.195312 42.109375 34.730469 41.675781 34.246094 41.246094 L 36.441406 38.238281 C 36.757812 37.808594 37.339844 37.707031 37.769531 38.023438 C 38.054688 38.222656 38.1875 38.503906 38.1875 38.804688 Z M 38.1875 38.804688 " fill-opacity="1" fill-rule="nonzero"/><g clip-path="url(#28a571cc50)"><path fill="#422819" d="M 70.507812 32.792969 L 66.535156 26.285156 C 66.253906 25.835938 66.402344 25.253906 66.851562 24.972656 C 67.316406 24.707031 67.882812 24.855469 68.164062 25.289062 L 72.136719 31.796875 C 72.421875 32.246094 72.269531 32.824219 71.820312 33.109375 C 71.390625 33.390625 70.792969 33.242188 70.507812 32.792969 Z M 70.507812 32.792969 " fill-opacity="1" fill-rule="nonzero"/></g><path fill="#422819" d="M 66.667969 19.195312 L 59.121094 18.03125 C 58.585938 17.949219 58.238281 17.46875 58.304688 16.953125 C 58.386719 16.421875 58.871094 16.074219 59.386719 16.15625 L 66.933594 17.316406 C 67.464844 17.402344 67.816406 17.882812 67.75 18.398438 C 67.683594 18.910156 67.199219 19.277344 66.667969 19.195312 Z M 66.667969 19.195312 " fill-opacity="1" fill-rule="nonzero"/><path fill="#422819" d="M 70.375 39.070312 L 62.742188 39.300781 C 62.210938 39.316406 61.761719 38.902344 61.746094 38.371094 C 61.730469 37.839844 62.144531 37.390625 62.675781 37.375 L 70.308594 37.144531 C 70.839844 37.125 71.289062 37.542969 71.304688 38.074219 C 71.304688 38.605469 70.890625 39.050781 70.375 39.070312 Z M 70.375 39.070312 " fill-opacity="1" fill-rule="nonzero"/><path fill="#422819" d="M 62.078125 32.792969 L 61.980469 25.171875 C 61.980469 24.640625 62.394531 24.207031 62.925781 24.207031 C 63.457031 24.207031 63.890625 24.640625 63.90625 25.171875 L 64.007812 32.792969 C 64.007812 33.324219 63.59375 33.753906 63.058594 33.753906 C 62.496094 33.722656 62.078125 33.308594 62.078125 32.792969 Z M 62.078125 32.792969 " fill-opacity="1" fill-rule="nonzero"/><path fill="#422819" d="M 53.898438 4.035156 L 50.589844 10.890625 C 50.359375 11.375 49.792969 11.574219 49.328125 11.339844 C 48.84375 11.109375 48.644531 10.527344 48.878906 10.078125 L 52.1875 3.222656 C 52.417969 2.738281 52.984375 2.539062 53.449219 2.773438 C 53.933594 2.988281 54.132812 3.570312 53.898438 4.035156 Z M 53.898438 4.035156 " fill-opacity="1" fill-rule="nonzero"/><path fill="#422819" d="M 45.785156 14.59375 L 49.824219 21.085938 C 50.109375 21.535156 49.976562 22.117188 49.527344 22.398438 C 49.078125 22.679688 48.496094 22.53125 48.210938 22.082031 L 44.171875 15.589844 C 43.890625 15.144531 44.023438 14.5625 44.472656 14.28125 C 44.9375 14.015625 45.519531 14.164062 45.785156 14.59375 Z M 45.785156 14.59375 " fill-opacity="1" fill-rule="nonzero"/><path fill="#422819" d="M 55.578125 20.238281 L 55.195312 27.84375 C 55.164062 28.375 54.714844 28.773438 54.179688 28.757812 C 53.648438 28.726562 53.234375 28.277344 53.265625 27.746094 L 53.648438 20.140625 C 53.683594 19.609375 54.132812 19.210938 54.664062 19.226562 C 55.195312 19.261719 55.613281 19.707031 55.578125 20.238281 Z M 55.578125 20.238281 " fill-opacity="1" fill-rule="nonzero"/><path fill="#422819" d="M 51.171875 30.253906 L 57.421875 34.6875 C 57.855469 35 57.957031 35.597656 57.65625 36.015625 C 57.355469 36.445312 56.742188 36.546875 56.328125 36.246094 L 50.074219 31.8125 C 49.640625 31.496094 49.542969 30.898438 49.84375 30.484375 C 50.140625 30.035156 50.738281 29.9375 51.171875 30.253906 Z M 51.171875 30.253906 " fill-opacity="1" fill-rule="nonzero"/><path fill="#422819" d="M 11.800781 34.785156 L 4.234375 33.621094 C 3.703125 33.539062 3.355469 33.058594 3.421875 32.542969 C 3.503906 32.011719 3.988281 31.664062 4.503906 31.746094 L 12.050781 32.910156 C 12.582031 32.992188 12.933594 33.472656 12.863281 33.988281 C 12.796875 34.503906 12.332031 34.867188 11.800781 34.785156 Z M 11.800781 34.785156 " fill-opacity="1" fill-rule="nonzero"/><path fill="#422819" d="M 18.484375 28.476562 L 11.152344 30.683594 C 10.636719 30.832031 10.121094 30.550781 9.972656 30.054688 C 9.824219 29.539062 10.105469 29.023438 10.621094 28.875 L 17.953125 26.664062 C 18.46875 26.515625 18.984375 26.796875 19.132812 27.296875 C 19.28125 27.777344 19 28.328125 18.484375 28.476562 Z M 18.484375 28.476562 " fill-opacity="1" fill-rule="nonzero"/><path fill="#422819" d="M 29.742188 12.96875 L 22.410156 15.175781 C 21.894531 15.324219 21.378906 15.042969 21.226562 14.546875 C 21.078125 14.03125 21.359375 13.515625 21.875 13.367188 L 29.207031 11.15625 C 29.722656 11.007812 30.238281 11.289062 30.390625 11.789062 C 30.539062 12.285156 30.257812 12.816406 29.742188 12.96875 Z M 29.742188 12.96875 " fill-opacity="1" fill-rule="nonzero"/><path fill="#422819" d="M 61.746094 11.023438 L 54.398438 13.234375 C 53.882812 13.382812 53.367188 13.101562 53.21875 12.601562 C 53.066406 12.085938 53.351562 11.574219 53.867188 11.421875 L 61.199219 9.214844 C 61.714844 9.066406 62.230469 9.347656 62.378906 9.847656 C 62.527344 10.328125 62.246094 10.875 61.746094 11.023438 Z M 61.746094 11.023438 " fill-opacity="1" fill-rule="nonzero"/><path fill="#422819" d="M 44.488281 33.257812 L 51.003906 37.226562 C 51.453125 37.507812 51.605469 38.089844 51.320312 38.519531 C 51.039062 38.96875 50.441406 39.117188 50.007812 38.835938 L 43.492188 34.867188 C 43.042969 34.585938 42.890625 34.003906 43.175781 33.574219 C 43.457031 33.125 44.039062 32.992188 44.488281 33.257812 Z M 44.488281 33.257812 " fill-opacity="1" fill-rule="nonzero"/><path fill="#422819" d="M 61.414062 40.113281 C 61.414062 40.347656 61.332031 40.5625 61.164062 40.746094 L 58.785156 43.386719 C 58.320312 42.953125 57.871094 42.507812 57.40625 42.074219 L 59.734375 39.484375 C 60.101562 39.085938 60.683594 39.070312 61.082031 39.402344 C 61.3125 39.601562 61.414062 39.847656 61.414062 40.113281 Z M 61.414062 40.113281 " fill-opacity="1" fill-rule="nonzero"/><path fill="#422819" d="M 41.460938 36.695312 C 40.414062 36.695312 40.582031 38.320312 41.628906 38.320312 C 42.691406 38.320312 42.511719 36.695312 41.460938 36.695312 Z M 41.460938 36.695312 " fill-opacity="1" fill-rule="nonzero"/><path fill="#422819" d="M 20.914062 33.820312 C 19.863281 33.820312 20.03125 35.449219 21.078125 35.449219 C 22.144531 35.449219 21.960938 33.820312 20.914062 33.820312 Z M 20.914062 33.820312 " fill-opacity="1" fill-rule="nonzero"/><path fill="#422819" d="M 29.675781 20.039062 C 28.625 20.039062 28.792969 21.667969 29.839844 21.667969 C 30.90625 21.667969 30.722656 20.039062 29.675781 20.039062 Z M 29.675781 20.039062 " fill-opacity="1" fill-rule="nonzero"/><path fill="#422819" d="M 48.710938 24.90625 C 47.664062 24.90625 47.832031 26.53125 48.878906 26.53125 C 49.925781 26.550781 49.757812 24.90625 48.710938 24.90625 Z M 48.710938 24.90625 " fill-opacity="1" fill-rule="nonzero"/><path fill="#422819" d="M 42.476562 17.683594 C 41.429688 17.683594 41.59375 19.308594 42.644531 19.308594 C 43.707031 19.308594 43.539062 17.683594 42.476562 17.683594 Z M 42.476562 17.683594 " fill-opacity="1" fill-rule="nonzero"/><path fill="#422819" d="M 58.804688 26.25 C 57.757812 26.25 57.921875 27.878906 58.96875 27.878906 C 60.050781 27.894531 59.867188 26.25 58.804688 26.25 Z M 58.804688 26.25 " fill-opacity="1" fill-rule="nonzero"/><path fill="#422819" d="M 60 33.65625 C 58.953125 33.65625 59.121094 35.285156 60.167969 35.285156 C 61.230469 35.285156 61.046875 33.65625 60 33.65625 Z M 60 33.65625 " fill-opacity="1" fill-rule="nonzero"/><path fill="#422819" d="M 15.34375 23.230469 C 14.296875 23.230469 14.460938 24.855469 15.507812 24.855469 C 16.589844 24.855469 16.40625 23.230469 15.34375 23.230469 Z M 15.34375 23.230469 " fill-opacity="1" fill-rule="nonzero"/><path fill="#422819" d="M 29.324219 14.976562 C 28.277344 14.976562 28.445312 16.605469 29.492188 16.605469 C 30.570312 16.621094 30.390625 14.976562 29.324219 14.976562 Z M 29.324219 14.976562 " fill-opacity="1" fill-rule="nonzero"/><path fill="#422819" d="M 37.40625 9.265625 C 36.359375 9.265625 36.523438 10.890625 37.570312 10.890625 C 38.652344 10.890625 38.46875 9.265625 37.40625 9.265625 Z M 37.40625 9.265625 " fill-opacity="1" fill-rule="nonzero"/><path fill="#422819" d="M 45.335938 3.039062 C 44.289062 3.039062 44.457031 4.664062 45.503906 4.664062 C 46.566406 4.664062 46.382812 3.039062 45.335938 3.039062 Z M 45.335938 3.039062 " fill-opacity="1" fill-rule="nonzero"/><path fill="#422819" d="M 15.992188 39.5 C 14.945312 39.5 15.109375 41.128906 16.15625 41.128906 C 17.222656 41.144531 17.039062 39.5 15.992188 39.5 Z M 15.992188 39.5 " fill-opacity="1" fill-rule="nonzero"/><path fill="#422819" d="M 36.574219 25.753906 C 35.527344 25.753906 35.691406 27.378906 36.742188 27.378906 C 37.804688 27.378906 37.621094 25.753906 36.574219 25.753906 Z M 36.574219 25.753906 " fill-opacity="1" fill-rule="nonzero"/><path fill="#422819" d="M 35.242188 32.824219 C 34.195312 32.824219 34.363281 34.453125 35.410156 34.453125 C 36.457031 34.453125 36.273438 32.824219 35.242188 32.824219 Z M 35.242188 32.824219 " fill-opacity="1" fill-rule="nonzero"/><path fill="#422819" d="M 16.023438 30.964844 C 14.976562 30.964844 15.144531 32.59375 16.191406 32.59375 C 17.253906 32.609375 17.070312 30.964844 16.023438 30.964844 Z M 16.023438 30.964844 " fill-opacity="1" fill-rule="nonzero"/><path fill="#422819" d="M 53.667969 38.304688 C 52.617188 38.304688 52.785156 39.933594 53.832031 39.933594 C 54.914062 39.933594 54.730469 38.304688 53.667969 38.304688 Z M 53.667969 38.304688 " fill-opacity="1" fill-rule="nonzero"/><path fill="#422819" d="M 52.335938 14.5625 C 51.289062 14.5625 51.453125 16.1875 52.503906 16.1875 C 53.550781 16.207031 53.367188 14.5625 52.335938 14.5625 Z M 52.335938 14.5625 " fill-opacity="1" fill-rule="nonzero"/><path fill="#422819" d="M 26.980469 25.785156 C 25.933594 25.785156 26.101562 27.414062 27.148438 27.414062 C 28.195312 27.429688 28.011719 25.785156 26.980469 25.785156 Z M 26.980469 25.785156 " fill-opacity="1" fill-rule="nonzero"/><path fill="#422819" d="M 59.386719 20.007812 C 58.339844 20.007812 58.503906 21.636719 59.550781 21.636719 C 60.617188 21.652344 60.433594 20.007812 59.386719 20.007812 Z M 59.386719 20.007812 " fill-opacity="1" fill-rule="nonzero"/><path fill="#422819" d="M 8.675781 36.046875 C 7.628906 36.046875 7.792969 37.675781 8.839844 37.675781 C 9.890625 37.691406 9.722656 36.046875 8.675781 36.046875 Z M 8.675781 36.046875 " fill-opacity="1" fill-rule="nonzero"/><path fill="#422819" d="M 29.855469 39.566406 C 28.808594 39.566406 28.976562 41.195312 30.023438 41.195312 C 31.085938 41.210938 30.90625 39.566406 29.855469 39.566406 Z M 29.855469 39.566406 " fill-opacity="1" fill-rule="nonzero"/><path fill="#422819" d="M 24.402344 9.746094 C 23.355469 9.746094 23.523438 11.375 24.570312 11.375 C 25.617188 11.40625 25.453125 9.746094 24.402344 9.746094 Z M 24.402344 9.746094 " fill-opacity="1" fill-rule="nonzero"/><path fill="#422819" d="M 46.550781 10.394531 C 45.503906 10.394531 45.667969 12.019531 46.714844 12.019531 C 47.78125 12.039062 47.597656 10.394531 46.550781 10.394531 Z M 46.550781 10.394531 " fill-opacity="1" fill-rule="nonzero"/><path fill="#422819" d="M 66.453125 32.195312 C 65.402344 32.195312 65.570312 33.820312 66.617188 33.820312 C 67.683594 33.839844 67.5 32.195312 66.453125 32.195312 Z M 66.453125 32.195312 " fill-opacity="1" fill-rule="nonzero"/><g clip-path="url(#1fefba09c7)"><path fill="#422819" d="M 38.601562 75 C 33.8125 75 28.976562 74.519531 23.507812 73.539062 C 19.816406 72.875 16.140625 72.0625 12.566406 71.113281 C 12.25 71.03125 12 70.78125 11.902344 70.46875 L 2.789062 41.445312 C 2.671875 41.078125 2.789062 40.664062 3.089844 40.414062 C 3.386719 40.164062 3.804688 40.113281 4.152344 40.296875 C 5.316406 40.910156 6.496094 41.542969 7.660156 42.15625 L 8.839844 42.773438 C 9.257812 42.441406 9.671875 42.109375 10.089844 41.777344 C 10.671875 41.3125 11.253906 40.84375 11.835938 40.378906 C 12.234375 40.066406 12.796875 40.113281 13.148438 40.480469 L 15.292969 42.820312 L 18.867188 40.347656 C 19.265625 40.066406 19.816406 40.132812 20.128906 40.496094 C 20.679688 41.113281 21.226562 41.726562 21.777344 42.339844 C 22.09375 42.707031 22.425781 43.070312 22.742188 43.417969 C 23.238281 42.921875 23.722656 42.421875 24.222656 41.925781 L 25.316406 40.8125 C 25.652344 40.464844 26.199219 40.429688 26.582031 40.730469 C 27.664062 41.558594 28.761719 42.390625 29.839844 43.21875 C 31.003906 42.222656 32.152344 41.226562 33.316406 40.214844 C 33.679688 39.898438 34.246094 39.898438 34.597656 40.230469 L 34.730469 40.363281 C 34.777344 40.414062 34.84375 40.464844 34.894531 40.511719 L 38.019531 43.351562 L 41.644531 40.214844 C 42.042969 39.867188 42.644531 39.914062 42.992188 40.296875 L 45.386719 43.019531 C 46.183594 42.175781 46.964844 41.328125 47.765625 40.464844 C 48.097656 40.097656 48.660156 40.046875 49.0625 40.363281 L 52.652344 43.171875 L 53.199219 42.621094 C 53.980469 41.84375 54.761719 41.046875 55.542969 40.265625 C 55.910156 39.898438 56.507812 39.882812 56.890625 40.246094 L 58.054688 41.34375 C 58.519531 41.792969 58.96875 42.222656 59.433594 42.65625 L 60.515625 43.683594 L 62.410156 40.777344 C 62.5625 40.546875 62.828125 40.378906 63.109375 40.347656 C 63.390625 40.3125 63.675781 40.414062 63.890625 40.613281 C 64.890625 41.558594 65.886719 42.507812 66.882812 43.46875 C 67.914062 42.40625 68.929688 41.328125 69.960938 40.265625 L 70.292969 39.914062 C 70.589844 39.601562 71.058594 39.535156 71.421875 39.734375 C 71.804688 39.933594 72.003906 40.347656 71.921875 40.761719 L 66.484375 68.691406 C 66.433594 68.972656 66.253906 69.222656 66.003906 69.355469 C 58.886719 73.191406 52.882812 73.855469 48.496094 74.335938 C 48.128906 74.367188 47.765625 74.417969 47.429688 74.453125 C 44.421875 74.816406 41.511719 75 38.601562 75 Z M 13.582031 69.386719 C 16.9375 70.269531 20.378906 71.015625 23.855469 71.644531 C 32.449219 73.191406 39.433594 73.457031 47.230469 72.558594 C 47.582031 72.527344 47.929688 72.476562 48.3125 72.441406 C 52.453125 71.996094 58.105469 71.363281 64.722656 67.894531 L 69.445312 43.636719 C 68.847656 44.265625 68.246094 44.898438 67.632812 45.527344 C 67.449219 45.710938 67.214844 45.828125 66.949219 45.828125 C 66.683594 45.828125 66.453125 45.742188 66.269531 45.5625 C 65.320312 44.648438 64.375 43.75 63.425781 42.855469 L 61.53125 45.761719 C 61.378906 45.992188 61.113281 46.160156 60.832031 46.191406 C 60.550781 46.226562 60.265625 46.125 60.050781 45.925781 L 58.121094 44.082031 C 57.65625 43.652344 57.207031 43.203125 56.742188 42.773438 L 56.277344 42.324219 C 55.710938 42.886719 55.164062 43.453125 54.597656 44.015625 L 53.449219 45.164062 C 53.101562 45.511719 52.550781 45.542969 52.167969 45.246094 L 48.613281 42.457031 C 47.832031 43.304688 47.03125 44.148438 46.25 44.980469 L 46.117188 45.128906 C 45.933594 45.328125 45.683594 45.445312 45.402344 45.429688 C 45.136719 45.429688 44.871094 45.3125 44.6875 45.097656 L 42.210938 42.289062 L 38.667969 45.363281 C 38.304688 45.675781 37.753906 45.675781 37.390625 45.34375 L 33.949219 42.222656 C 32.800781 43.203125 31.667969 44.199219 30.523438 45.179688 C 30.171875 45.476562 29.675781 45.496094 29.308594 45.210938 C 28.246094 44.398438 27.164062 43.585938 26.101562 42.773438 L 25.601562 43.269531 C 24.871094 44.015625 24.136719 44.746094 23.390625 45.496094 C 23.207031 45.675781 22.941406 45.777344 22.675781 45.777344 C 22.410156 45.777344 22.160156 45.660156 21.976562 45.460938 C 21.425781 44.847656 20.878906 44.234375 20.332031 43.617188 C 19.964844 43.21875 19.617188 42.804688 19.25 42.40625 L 15.691406 44.878906 C 15.292969 45.164062 14.761719 45.097656 14.429688 44.746094 L 12.316406 42.457031 C 11.96875 42.738281 11.617188 43.003906 11.269531 43.285156 C 10.6875 43.75 10.105469 44.214844 9.523438 44.679688 C 9.222656 44.914062 8.808594 44.964844 8.476562 44.78125 L 6.746094 43.867188 C 6.265625 43.617188 5.800781 43.371094 5.316406 43.105469 Z M 13.582031 69.386719 " fill-opacity="1" fill-rule="nonzero"/></g></svg>