<svg xmlns="http://www.w3.org/2000/svg" xmlns:xlink="http://www.w3.org/1999/xlink" width="100" zoomAndPan="magnify" viewBox="0 0 75 74.999997" height="100" preserveAspectRatio="xMidYMid meet" version="1.0"><path fill="#facac6" d="M 34.003906 16.886719 C 31.9375 17.238281 28.421875 18.65625 26.472656 19.953125 C 22.636719 22.519531 19.976562 26 18.472656 30.394531 C 17.410156 33.550781 17.171875 38.09375 17.910156 41.21875 C 20.332031 51.28125 29.484375 57.769531 39.792969 56.765625 C 48.089844 55.941406 54.996094 49.980469 57.210938 41.75 C 57.890625 39.183594 57.890625 34.289062 57.210938 31.722656 C 56.207031 28.09375 54.761719 25.617188 51.867188 22.695312 C 47.617188 18.417969 43.335938 16.648438 37.578125 16.707031 C 36.011719 16.738281 34.417969 16.824219 34.003906 16.886719 Z M 41.179688 17.828125 C 41.296875 17.976562 41.0625 19.804688 40.617188 21.957031 L 39.792969 25.851562 L 38.757812 25.765625 L 37.695312 25.675781 L 37.605469 21.546875 L 37.519531 17.414062 L 39.230469 17.503906 C 40.175781 17.5625 41.0625 17.710938 41.179688 17.828125 Z M 36.71875 20.367188 C 36.839844 26.089844 36.898438 25.675781 36.011719 25.765625 C 35.273438 25.851562 35.183594 25.734375 34.625 23.847656 C 33.296875 19.214844 33.117188 18.625 33.117188 18.269531 C 33.117188 17.859375 33.855469 17.652344 35.570312 17.59375 L 36.660156 17.5625 Z M 33.265625 22.015625 C 33.828125 23.875 34.300781 25.558594 34.300781 25.765625 C 34.300781 26.234375 32.203125 27.148438 31.964844 26.796875 C 30.285156 24.289062 27.746094 20.160156 27.863281 20.070312 C 28.277344 19.628906 31.820312 18.242188 32.027344 18.417969 C 32.144531 18.566406 32.703125 20.160156 33.265625 22.015625 Z M 44.78125 18.800781 C 45.667969 19.1875 46.40625 19.597656 46.40625 19.746094 C 46.40625 20.011719 42.597656 26.707031 42.449219 26.707031 C 42.390625 26.707031 41.945312 26.558594 41.472656 26.382812 L 40.558594 26.089844 L 41.269531 22.785156 C 42.242188 18.125 42.242188 18.152344 42.714844 18.152344 C 42.949219 18.152344 43.867188 18.449219 44.78125 18.800781 Z M 49.179688 21.339844 C 49.976562 21.929688 50.6875 22.578125 50.746094 22.726562 C 50.804688 22.902344 49.59375 24.257812 48.058594 25.792969 L 45.285156 28.566406 L 44.21875 27.917969 L 43.15625 27.269531 L 44.042969 25.734375 C 44.546875 24.878906 45.429688 23.316406 46.023438 22.195312 C 46.640625 21.101562 47.261719 20.21875 47.4375 20.21875 C 47.585938 20.21875 48.382812 20.71875 49.179688 21.339844 Z M 29.28125 24.082031 L 31.40625 27.386719 L 30.695312 28.066406 L 30.019531 28.742188 L 27.152344 25.910156 C 25.558594 24.347656 24.261719 22.992188 24.261719 22.84375 C 24.261719 22.546875 26.414062 20.835938 26.800781 20.808594 C 26.976562 20.808594 28.097656 22.28125 29.28125 24.082031 Z M 53.789062 26.175781 C 53.789062 26.324219 49.445312 29.007812 46.9375 30.453125 C 46.820312 30.511719 46.492188 30.21875 46.226562 29.804688 L 45.757812 29.066406 L 48.648438 26.265625 L 51.574219 23.492188 L 52.664062 24.730469 C 53.285156 25.410156 53.789062 26.058594 53.789062 26.175781 Z M 26.59375 26.53125 L 29.339844 29.304688 L 28.660156 30.21875 C 28.214844 30.808594 27.804688 31.074219 27.507812 30.984375 C 27.273438 30.867188 25.589844 30.128906 23.757812 29.304688 C 20.65625 27.886719 20.480469 27.738281 20.777344 27.179688 C 21.335938 26.058594 23.195312 23.757812 23.523438 23.757812 C 23.699219 23.757812 25.058594 24.996094 26.59375 26.53125 Z M 36.957031 31.191406 L 36.957031 35.703125 L 33.855469 32.605469 C 32.144531 30.894531 30.757812 29.421875 30.757812 29.304688 C 30.757812 28.59375 34.625 26.738281 36.160156 26.707031 L 36.957031 26.707031 Z M 41.828125 27.535156 C 44.722656 28.921875 44.75 28.800781 41.089844 32.460938 L 37.84375 35.703125 L 37.84375 31.664062 C 37.84375 29.449219 37.753906 27.445312 37.664062 27.179688 C 37.339844 26.355469 39.792969 26.589844 41.828125 27.535156 Z M 55.53125 29.511719 C 56.5625 32.253906 56.800781 32.015625 52.3125 32.933594 C 50.125 33.375 48.324219 33.699219 48.324219 33.699219 C 48.324219 33.667969 48.058594 33.136719 47.792969 32.488281 C 47.496094 31.871094 47.320312 31.28125 47.410156 31.191406 C 47.496094 31.132812 49.0625 30.160156 50.894531 29.039062 C 54.671875 26.765625 54.496094 26.765625 55.53125 29.511719 Z M 23.996094 30.277344 C 25.855469 31.132812 27.417969 31.839844 27.476562 31.898438 C 27.714844 32.105469 26.828125 33.789062 26.472656 33.789062 C 25.882812 33.789062 19.152344 32.578125 18.914062 32.429688 C 18.5625 32.222656 19.832031 28.773438 20.273438 28.773438 C 20.480469 28.773438 22.164062 29.449219 23.996094 30.277344 Z M 33.265625 33.195312 L 36.515625 36.441406 L 27.507812 36.441406 L 27.507812 35.585938 C 27.507812 34.464844 28.246094 32.429688 29.160156 31.042969 C 29.546875 30.453125 29.898438 29.953125 29.957031 29.953125 C 29.988281 29.953125 31.496094 31.398438 33.265625 33.195312 Z M 45.933594 30.894531 C 46.820312 32.105469 47.46875 33.609375 47.734375 35.234375 L 47.941406 36.441406 L 38.285156 36.441406 L 41.535156 33.195312 C 43.304688 31.398438 44.871094 29.953125 44.988281 29.953125 C 45.105469 29.953125 45.519531 30.394531 45.933594 30.894531 Z M 56.828125 34.644531 C 56.976562 35.5 56.976562 36.324219 56.828125 36.441406 C 56.710938 36.589844 54.851562 36.617188 52.695312 36.53125 C 48.855469 36.355469 48.796875 36.355469 48.621094 35.617188 C 48.53125 35.203125 48.5625 34.789062 48.679688 34.644531 C 48.945312 34.40625 55.855469 32.933594 56.296875 33.019531 C 56.472656 33.078125 56.710938 33.789062 56.828125 34.644531 Z M 25.675781 34.523438 C 26.535156 34.671875 26.652344 34.820312 26.5625 35.5 L 26.472656 36.292969 L 22.429688 36.382812 L 18.355469 36.472656 L 18.355469 35.027344 C 18.355469 34.230469 18.414062 33.523438 18.503906 33.433594 C 18.589844 33.34375 20.039062 33.523438 21.691406 33.816406 C 23.34375 34.113281 25.144531 34.4375 25.675781 34.523438 Z M 25.972656 37.207031 C 26.386719 37.328125 26.621094 37.621094 26.621094 38.035156 C 26.621094 38.566406 26.003906 38.890625 22.871094 40.1875 C 20.804688 41.042969 19.003906 41.632812 18.855469 41.484375 C 18.738281 41.367188 18.53125 40.304688 18.441406 39.15625 L 18.265625 37.03125 L 21.78125 37.03125 C 23.699219 37.03125 25.589844 37.121094 25.972656 37.207031 Z M 33.117188 40.425781 C 30.785156 42.753906 29.957031 43.433594 29.664062 43.195312 C 28.984375 42.605469 27.507812 39.304688 27.507812 38.300781 L 27.507812 37.328125 L 36.21875 37.328125 Z M 47.734375 38.417969 C 47.527344 39.714844 46.40625 42.195312 45.609375 43.167969 L 45.078125 43.816406 L 41.828125 40.570312 L 38.582031 37.328125 L 47.941406 37.328125 Z M 56.859375 37.59375 C 57.003906 37.800781 56.535156 41.484375 56.328125 41.691406 C 56.238281 41.78125 48.738281 39.125 48.5 38.917969 C 48.441406 38.859375 48.472656 38.476562 48.589844 38.0625 L 48.769531 37.328125 L 52.753906 37.328125 C 54.910156 37.328125 56.769531 37.445312 56.859375 37.59375 Z M 37.253906 42.871094 L 37.253906 47.089844 L 36.160156 46.882812 C 34.625 46.617188 31.789062 45.351562 31.167969 44.640625 C 30.667969 44.113281 30.757812 43.992188 33.707031 41.015625 C 35.804688 38.917969 36.867188 38.035156 37.015625 38.300781 C 37.132812 38.476562 37.253906 40.542969 37.253906 42.871094 Z M 41.386719 41.308594 C 43.246094 43.167969 44.367188 44.496094 44.160156 44.640625 C 42.539062 45.761719 41.535156 46.207031 40.058594 46.617188 C 39.113281 46.855469 38.285156 47.003906 38.226562 46.941406 C 37.960938 46.707031 37.785156 38.210938 38.019531 38.210938 C 38.167969 38.210938 39.703125 39.597656 41.386719 41.308594 Z M 27.210938 40.570312 C 27.417969 41.074219 27.539062 41.515625 27.476562 41.574219 C 27.417969 41.632812 25.824219 42.605469 23.90625 43.757812 L 20.480469 45.824219 L 19.832031 44.347656 C 19.476562 43.523438 19.300781 42.753906 19.445312 42.605469 C 19.566406 42.488281 20.863281 41.898438 22.3125 41.308594 C 23.757812 40.71875 25.175781 40.128906 25.410156 39.980469 C 26.269531 39.480469 26.828125 39.6875 27.210938 40.570312 Z M 51.660156 40.984375 C 53.226562 41.546875 54.878906 42.136719 55.324219 42.3125 L 56.148438 42.605469 L 55.53125 44.023438 C 55.203125 44.789062 54.820312 45.558594 54.703125 45.675781 C 54.496094 45.882812 48.828125 42.636719 47.792969 41.75 C 47.527344 41.515625 48.148438 39.980469 48.53125 39.980469 C 48.679688 39.980469 50.097656 40.425781 51.660156 40.984375 Z M 28.660156 43.257812 L 29.339844 44.171875 L 26.472656 46.882812 C 24.878906 48.359375 23.492188 49.597656 23.375 49.65625 C 23.257812 49.714844 22.636719 49.066406 22.046875 48.242188 C 21.277344 47.207031 21.042969 46.617188 21.25 46.414062 C 21.574219 46.085938 27.566406 42.402344 27.832031 42.371094 C 27.921875 42.339844 28.304688 42.753906 28.660156 43.257812 Z M 51.070312 44.761719 C 52.636719 45.734375 53.992188 46.589844 54.054688 46.648438 C 54.230469 46.796875 52.960938 48.652344 52.164062 49.421875 L 51.394531 50.128906 L 48.589844 47.296875 L 45.757812 44.496094 L 46.433594 43.433594 C 47.230469 42.222656 46.847656 42.136719 51.070312 44.761719 Z M 31.789062 46.5 C 31.789062 46.796875 26.859375 52.664062 26.621094 52.664062 C 26.535156 52.664062 25.882812 52.164062 25.175781 51.546875 L 23.90625 50.453125 L 26.917969 47.5625 L 29.929688 44.703125 L 30.84375 45.46875 C 31.375 45.910156 31.789062 46.382812 31.789062 46.5 Z M 49.625 51.839844 C 48.945312 52.460938 48.296875 52.960938 48.175781 52.960938 C 47.910156 52.960938 44.042969 46.414062 44.042969 45.941406 C 44.042969 45.761719 44.28125 45.46875 44.574219 45.320312 C 44.988281 45.085938 45.578125 45.527344 47.96875 47.886719 L 50.863281 50.75 Z M 45.285156 50.039062 L 47.261719 53.582031 L 45.726562 54.289062 C 44.898438 54.671875 43.925781 55.027344 43.628906 55.085938 C 43.039062 55.171875 43.097656 55.292969 41.296875 48.183594 C 41.121094 47.503906 41.207031 47.296875 41.886719 46.941406 C 42.359375 46.707031 42.863281 46.5 43.011719 46.5 C 43.1875 46.472656 44.191406 48.09375 45.285156 50.039062 Z M 34.179688 47.386719 C 34.300781 47.621094 31.523438 54.347656 31.109375 54.789062 C 30.933594 54.964844 28.246094 53.785156 27.714844 53.285156 C 27.597656 53.167969 28.71875 51.664062 30.164062 49.953125 C 32.261719 47.503906 32.96875 46.855469 33.414062 46.972656 C 33.738281 47.0625 34.09375 47.238281 34.179688 47.386719 Z M 37.132812 48.035156 C 37.164062 48.0625 37.222656 49.894531 37.28125 52.074219 L 37.339844 56.058594 L 36.632812 56 C 34.566406 55.851562 32.617188 55.558594 32.292969 55.351562 C 31.996094 55.171875 32.203125 54.496094 33.148438 52.339844 C 33.828125 50.808594 34.566406 49.125 34.800781 48.566406 C 35.183594 47.679688 35.304688 47.59375 36.128906 47.769531 C 36.660156 47.859375 37.105469 47.976562 37.132812 48.035156 Z M 41.296875 51.546875 C 41.800781 53.699219 42.183594 55.496094 42.152344 55.527344 C 41.976562 55.703125 38.433594 56.085938 38.285156 55.96875 C 38.195312 55.882812 38.136719 54.050781 38.136719 51.898438 C 38.136719 47.769531 38.136719 47.710938 39.644531 47.679688 C 40.351562 47.652344 40.410156 47.769531 41.296875 51.546875 Z M 41.296875 51.546875 " fill-opacity="1" fill-rule="nonzero"/></svg>