<svg xmlns="http://www.w3.org/2000/svg" xmlns:xlink="http://www.w3.org/1999/xlink" width="100" zoomAndPan="magnify" viewBox="0 0 75 74.999997" height="100" preserveAspectRatio="xMidYMid meet" version="1.0"><path fill="#000000" d="M 33.890625 15.445312 C 29.136719 16.238281 25.121094 18.335938 21.695312 21.757812 C 17.238281 26.210938 15.082031 31.371094 15.082031 37.566406 C 15.082031 43.851562 17.269531 48.984375 21.84375 53.496094 C 32.679688 64.203125 50.632812 61.164062 57.511719 47.449219 C 59.078125 44.351562 59.667969 41.667969 59.667969 37.566406 C 59.667969 32.433594 58.515625 28.660156 55.773438 24.648438 C 51.164062 17.921875 42.011719 14.085938 33.890625 15.445312 Z M 36.636719 21.019531 C 36.636719 25.738281 36.609375 26.003906 36.046875 26.152344 C 35.722656 26.238281 35.398438 26.210938 35.308594 26.0625 C 35.25 25.945312 34.894531 23.761719 34.511719 21.226562 C 33.804688 16.0625 33.804688 16.035156 35.691406 16.035156 L 36.636719 16.035156 Z M 40.269531 16.238281 C 40.328125 16.386719 40.035156 18.601562 39.589844 21.195312 C 38.882812 25.5625 38.765625 25.914062 38.171875 26.003906 C 37.582031 26.09375 37.523438 25.972656 37.523438 24.824219 C 37.523438 24.117188 37.433594 21.875 37.316406 19.78125 L 37.140625 16.035156 L 38.644531 16.035156 C 39.472656 16.035156 40.210938 16.121094 40.269531 16.238281 Z M 44.433594 17.214844 C 44.847656 17.359375 45.199219 17.539062 45.199219 17.566406 C 45.199219 17.625 44.34375 19.632812 43.3125 22.082031 C 41.511719 26.328125 41.390625 26.503906 40.625 26.445312 C 40.179688 26.417969 39.769531 26.328125 39.679688 26.269531 C 39.5625 26.152344 40.949219 17.449219 41.214844 16.710938 C 41.332031 16.359375 42.808594 16.59375 44.433594 17.214844 Z M 33.09375 16.828125 C 33.09375 16.976562 33.417969 19.160156 33.773438 21.757812 L 34.453125 26.417969 L 33.863281 26.652344 C 33.507812 26.769531 33.210938 26.859375 33.183594 26.828125 C 32.976562 26.652344 28.371094 18.304688 28.371094 18.097656 C 28.371094 17.863281 31.796875 16.652344 32.59375 16.625 C 32.859375 16.625 33.09375 16.710938 33.09375 16.828125 Z M 49.039062 19.515625 C 49.039062 19.867188 43.605469 27.332031 43.28125 27.449219 C 43.132812 27.480469 42.808594 27.417969 42.574219 27.273438 C 42.21875 27.035156 42.453125 26.269531 43.871094 22.90625 C 46.265625 17.183594 45.851562 17.65625 47.5625 18.539062 C 48.390625 18.953125 49.039062 19.394531 49.039062 19.515625 Z M 30.054688 22.964844 C 32.328125 27.035156 32.414062 27.273438 31.855469 27.566406 C 31.144531 27.949219 31.351562 28.15625 28.605469 24.292969 C 25.035156 19.308594 25.242188 19.691406 26.214844 19.160156 C 26.65625 18.925781 27.1875 18.71875 27.335938 18.6875 C 27.515625 18.6875 28.722656 20.605469 30.054688 22.964844 Z M 27.78125 24.527344 C 30.289062 28.097656 30.464844 28.511719 30.054688 28.925781 C 29.640625 29.335938 29.257812 29.101562 25.683594 26.035156 L 21.785156 22.699219 L 23.203125 21.402344 C 23.96875 20.722656 24.707031 20.25 24.828125 20.371094 C 24.945312 20.488281 26.273438 22.375 27.78125 24.527344 Z M 51.3125 21.167969 L 52.40625 22.167969 L 49.070312 25.738281 C 47.238281 27.714844 45.644531 29.308594 45.554688 29.308594 C 45.464844 29.308594 45.082031 29.042969 44.726562 28.6875 L 44.078125 28.097656 L 46.914062 24.117188 C 48.449219 21.933594 49.835938 20.164062 49.984375 20.164062 C 50.132812 20.164062 50.722656 20.605469 51.3125 21.167969 Z M 55.003906 25.117188 C 55.503906 25.828125 55.773438 26.503906 55.652344 26.625 C 55.503906 26.742188 53.527344 27.890625 51.285156 29.128906 L 47.179688 31.429688 L 46.648438 30.753906 C 46.058594 29.957031 45.730469 30.398438 51.078125 24.824219 C 53.261719 22.550781 53.230469 22.550781 55.003906 25.117188 Z M 25.179688 26.683594 C 28.488281 29.542969 28.960938 30.046875 28.578125 30.398438 C 28.222656 30.78125 27.574219 30.546875 23.675781 28.597656 C 21.222656 27.359375 19.214844 26.269531 19.214844 26.179688 C 19.214844 25.945312 21.046875 23.40625 21.222656 23.40625 C 21.285156 23.40625 23.054688 24.882812 25.179688 26.683594 Z M 27.71875 31.519531 C 27.78125 31.578125 27.632812 31.933594 27.425781 32.316406 C 27.21875 32.671875 27.042969 33.023438 27.011719 33.082031 C 26.953125 33.203125 17.742188 29.984375 17.535156 29.78125 C 17.414062 29.660156 17.621094 28.984375 17.976562 28.273438 L 18.625 26.949219 L 23.113281 29.191406 C 25.59375 30.429688 27.660156 31.492188 27.71875 31.519531 Z M 36.636719 31.285156 C 36.636719 33.644531 36.578125 35.53125 36.519531 35.472656 C 35.929688 34.824219 31.914062 28.953125 31.914062 28.71875 C 31.914062 28.363281 32.886719 27.832031 34.421875 27.359375 C 36.757812 26.625 36.636719 26.417969 36.636719 31.285156 Z M 41.714844 27.863281 L 42.867188 28.453125 L 42.160156 29.394531 C 41.777344 29.925781 40.625 31.492188 39.621094 32.90625 C 38.617188 34.351562 37.730469 35.503906 37.671875 35.503906 C 37.582031 35.503906 37.523438 33.554688 37.523438 31.195312 L 37.523438 26.859375 L 39.03125 27.066406 C 39.886719 27.183594 41.097656 27.539062 41.714844 27.863281 Z M 57.308594 29.25 C 57.691406 30.105469 57.925781 30.839844 57.867188 30.902344 C 57.75 31.019531 54.175781 32.019531 50.101562 33.082031 C 48.449219 33.496094 48.332031 33.496094 47.976562 32.996094 C 47.738281 32.699219 47.5625 32.375 47.5625 32.285156 C 47.5625 31.960938 56.273438 27.273438 56.449219 27.480469 C 56.570312 27.597656 56.953125 28.394531 57.308594 29.25 Z M 45.347656 30.546875 C 46.085938 31.371094 46.589844 32.167969 46.46875 32.285156 C 46.175781 32.582031 38.910156 35.796875 38.792969 35.707031 C 38.644531 35.5625 43.457031 29.011719 43.722656 29.011719 C 43.84375 29.011719 44.582031 29.691406 45.347656 30.546875 Z M 33.476562 32.582031 C 34.777344 34.382812 35.753906 35.886719 35.664062 35.972656 C 35.546875 36.09375 31.351562 34.734375 28.605469 33.671875 C 27.808594 33.378906 27.808594 33.347656 28.253906 32.492188 C 28.722656 31.578125 30.671875 29.308594 31 29.308594 C 31.085938 29.308594 32.207031 30.78125 33.476562 32.582031 Z M 22.023438 32.285156 C 24.472656 33.140625 26.480469 33.851562 26.539062 33.878906 C 26.570312 33.910156 26.511719 34.558594 26.421875 35.296875 L 26.214844 36.683594 L 23.351562 36.683594 C 21.785156 36.683594 19.453125 36.59375 18.183594 36.476562 L 15.910156 36.296875 L 16.085938 34.648438 C 16.351562 32.316406 16.824219 30.78125 17.238281 30.78125 C 17.445312 30.78125 19.601562 31.460938 22.023438 32.285156 Z M 58.753906 34.351562 C 58.929688 35.382812 59.078125 36.417969 59.078125 36.59375 C 59.078125 36.886719 57.867188 36.976562 53.941406 36.976562 L 48.832031 36.976562 L 48.65625 35.738281 C 48.566406 35.03125 48.539062 34.441406 48.566406 34.382812 C 48.625 34.320312 50.78125 33.730469 53.351562 33.054688 C 56.628906 32.167969 58.105469 31.902344 58.25 32.109375 C 58.371094 32.285156 58.605469 33.289062 58.753906 34.351562 Z M 47.535156 34.441406 C 48.210938 37.125 48.449219 36.976562 43.371094 36.976562 C 40.625 36.976562 39 36.859375 39.148438 36.710938 C 39.441406 36.445312 46.648438 33.171875 47 33.140625 C 47.121094 33.140625 47.355469 33.730469 47.535156 34.441406 Z M 30.878906 35.355469 C 32.472656 35.914062 33.921875 36.445312 34.097656 36.503906 C 34.277344 36.5625 32.800781 36.652344 30.820312 36.652344 L 27.1875 36.683594 L 27.1875 35.972656 C 27.1875 35.117188 27.453125 34.320312 27.75 34.320312 C 27.867188 34.320312 29.285156 34.792969 30.878906 35.355469 Z M 22.996094 37.476562 L 26.304688 37.65625 L 26.304688 38.777344 C 26.304688 39.867188 26.273438 39.898438 24.769531 40.339844 C 23.910156 40.605469 21.757812 41.253906 19.953125 41.816406 C 18.183594 42.375 16.589844 42.730469 16.46875 42.609375 C 16.351562 42.492188 16.175781 41.226562 16.058594 39.839844 L 15.878906 37.273438 L 17.769531 37.273438 C 18.804688 37.273438 21.164062 37.359375 22.996094 37.476562 Z M 33.980469 37.949219 C 30.878906 39.394531 27.632812 40.753906 27.542969 40.695312 C 27.515625 40.632812 27.367188 39.898438 27.21875 39.070312 L 26.980469 37.566406 L 30.851562 37.597656 C 34.011719 37.597656 34.570312 37.65625 33.980469 37.949219 Z M 42.632812 39.867188 C 44.609375 40.898438 46.351562 41.875 46.5 42.019531 C 46.824219 42.316406 45.347656 44.527344 44.375 45.175781 C 44.019531 45.414062 43.664062 45.5625 43.605469 45.5 C 43.371094 45.207031 38.496094 38.246094 38.292969 37.949219 C 37.996094 37.417969 38.46875 37.625 42.632812 39.867188 Z M 46.203125 37.863281 L 47.945312 37.863281 L 47.738281 39.25 C 47.652344 40.015625 47.414062 40.78125 47.238281 40.960938 C 47.03125 41.164062 45.996094 40.753906 43.929688 39.660156 C 42.277344 38.777344 40.800781 37.949219 40.625 37.773438 C 40.417969 37.597656 41.039062 37.566406 42.394531 37.683594 C 43.546875 37.773438 45.230469 37.863281 46.203125 37.863281 Z M 59.078125 38.363281 C 59.078125 39.335938 58.457031 42.730469 58.25 42.933594 C 58.015625 43.140625 48.566406 40.042969 48.683594 39.808594 C 48.714844 39.71875 48.742188 39.21875 48.742188 38.746094 L 48.742188 37.863281 L 53.910156 37.863281 C 58.636719 37.863281 59.078125 37.890625 59.078125 38.363281 Z M 35.753906 38.273438 C 35.753906 38.660156 30.9375 45.089844 30.644531 45.089844 C 30.261719 45.089844 28.074219 42.316406 28.074219 41.816406 C 28.074219 41.636719 29.699219 40.753906 31.707031 39.839844 C 35.25 38.214844 35.753906 38.039062 35.753906 38.273438 Z M 36.875 45.679688 L 36.785156 47.742188 L 35.898438 47.65625 C 34.335938 47.476562 31.765625 46.296875 31.796875 45.765625 C 31.824219 45.5 32.886719 43.789062 34.15625 41.992188 L 36.488281 38.71875 L 36.726562 41.164062 C 36.84375 42.523438 36.902344 44.527344 36.875 45.679688 Z M 40.328125 42.226562 C 41.628906 44.117188 42.691406 45.855469 42.691406 46.09375 C 42.691406 46.59375 40.417969 47.507812 38.851562 47.625 L 37.671875 47.742188 L 37.582031 43.230469 C 37.554688 40.78125 37.613281 38.746094 37.730469 38.746094 C 37.878906 38.777344 39.03125 40.339844 40.328125 42.226562 Z M 27.335938 42.226562 L 28.015625 43.703125 L 26.363281 44.824219 C 25.417969 45.472656 23.585938 46.742188 22.289062 47.65625 C 20.957031 48.597656 19.75 49.367188 19.570312 49.367188 C 19.214844 49.367188 17.269531 45.5625 17.003906 44.351562 C 16.824219 43.644531 16.941406 43.585938 21.636719 42.109375 C 24.296875 41.3125 26.511719 40.664062 26.570312 40.695312 C 26.628906 40.753906 26.980469 41.429688 27.335938 42.226562 Z M 53.113281 42.316406 C 55.59375 43.140625 57.71875 43.996094 57.78125 44.175781 C 57.867188 44.382812 57.574219 45.296875 57.160156 46.238281 C 56.421875 47.890625 56.390625 47.921875 55.742188 47.539062 C 55.386719 47.300781 53.410156 46.09375 51.34375 44.824219 L 47.59375 42.550781 L 47.917969 41.667969 C 48.066406 41.195312 48.300781 40.8125 48.390625 40.8125 C 48.507812 40.8125 50.632812 41.488281 53.113281 42.316406 Z M 51.488281 45.855469 C 53.644531 47.183594 55.503906 48.363281 55.652344 48.511719 C 55.773438 48.628906 55.476562 49.335938 54.945312 50.105469 L 54 51.460938 L 52.492188 50.164062 C 51.636719 49.453125 49.867188 47.980469 48.539062 46.886719 C 47.148438 45.738281 46.175781 44.707031 46.292969 44.527344 C 46.675781 43.878906 47.0625 43.464844 47.328125 43.464844 C 47.472656 43.464844 49.335938 44.558594 51.488281 45.855469 Z M 29.226562 47.507812 C 28.664062 48.304688 27.367188 50.164062 26.304688 51.636719 C 25.242188 53.140625 24.238281 54.378906 24.058594 54.378906 C 23.675781 54.378906 20.101562 50.664062 20.132812 50.308594 C 20.132812 50.191406 22.023438 48.804688 24.324219 47.210938 L 28.488281 44.351562 L 29.375 45.207031 L 30.261719 46.09375 Z M 49.480469 48.746094 C 51.519531 50.429688 53.171875 51.875 53.171875 51.960938 C 53.171875 52.285156 50.691406 54.675781 50.367188 54.675781 C 50.21875 54.675781 48.773438 52.789062 47.148438 50.515625 C 44.433594 46.621094 44.285156 46.355469 44.789062 45.972656 C 45.113281 45.738281 45.4375 45.589844 45.554688 45.621094 C 45.671875 45.648438 47.445312 47.066406 49.480469 48.746094 Z M 31.5 47.125 C 31.589844 47.332031 30.644531 49.542969 29.402344 51.992188 L 27.1875 56.445312 L 26.273438 56.003906 C 25.800781 55.738281 25.328125 55.355469 25.242188 55.148438 C 25.09375 54.734375 30.613281 46.710938 31.058594 46.710938 C 31.234375 46.710938 31.410156 46.886719 31.5 47.125 Z M 46.53125 51.019531 C 48.125 53.261719 49.304688 55.175781 49.214844 55.414062 C 49.039062 55.914062 46.765625 57.125 46.410156 56.917969 C 46.265625 56.828125 45.261719 54.734375 44.167969 52.285156 C 42.277344 48.039062 42.1875 47.773438 42.71875 47.390625 C 43.015625 47.183594 43.339844 47.007812 43.457031 47.007812 C 43.578125 47.007812 44.964844 48.804688 46.53125 51.019531 Z M 33.65625 47.921875 C 34.304688 48.15625 34.542969 48.394531 34.453125 48.746094 C 34.363281 49.011719 34.011719 51.195312 33.683594 53.644531 C 33.332031 56.0625 32.917969 58.1875 32.769531 58.363281 C 32.445312 58.71875 28.371094 57.390625 28.164062 56.859375 C 28.046875 56.5625 32.355469 47.597656 32.621094 47.597656 C 32.652344 47.597656 33.125 47.742188 33.65625 47.921875 Z M 43.488281 52.730469 C 44.582031 55.148438 45.496094 57.242188 45.496094 57.359375 C 45.496094 57.625 42.574219 58.628906 42.367188 58.421875 C 42.277344 58.332031 41.628906 56.089844 40.917969 53.40625 C 39.621094 48.394531 39.621094 48.15625 40.890625 48.273438 C 41.332031 48.332031 41.953125 49.425781 43.488281 52.730469 Z M 36.875 53.910156 L 36.933594 59.1875 L 35.425781 59.011719 C 34.601562 58.894531 33.863281 58.777344 33.804688 58.71875 C 33.742188 58.6875 34.070312 56.355469 34.480469 53.554688 L 35.28125 48.453125 L 36.019531 48.539062 L 36.785156 48.628906 Z M 40.121094 53.585938 C 40.859375 56.296875 41.363281 58.597656 41.273438 58.6875 C 41.214844 58.777344 40.417969 58.921875 39.53125 59.011719 L 37.90625 59.160156 L 37.761719 54.054688 C 37.640625 51.222656 37.640625 48.804688 37.730469 48.6875 C 37.820312 48.570312 38.085938 48.480469 38.351562 48.539062 C 38.675781 48.597656 39.175781 50.042969 40.121094 53.585938 Z M 40.121094 53.585938 " fill-opacity="1" fill-rule="nonzero"/></svg>