<svg xmlns="http://www.w3.org/2000/svg" xmlns:xlink="http://www.w3.org/1999/xlink" width="100" zoomAndPan="magnify" viewBox="0 0 75 74.999997" height="100" preserveAspectRatio="xMidYMid meet" version="1.0"><path fill="#000000" d="M 30.878906 4.257812 C 24.148438 5.730469 18.65625 8.710938 13.871094 13.488281 C 2.414062 24.992188 0.878906 43.015625 10.269531 56.261719 C 15.734375 63.960938 23.851562 68.769531 33.597656 70.066406 C 37.023438 70.507812 37.582031 70.507812 41.183594 70.066406 C 47.328125 69.328125 52.167969 67.472656 56.921875 64.078125 C 64.1875 58.917969 69.117188 50.894531 70.445312 42.132812 C 73.074219 25.140625 62.652344 9.242188 45.878906 4.640625 C 42.78125 3.785156 34.039062 3.578125 30.878906 4.257812 Z M 37.375 4.730469 C 37.433594 4.933594 37.523438 7.058594 37.582031 9.417969 L 37.671875 13.753906 L 35.308594 13.992188 C 34.011719 14.109375 32.828125 14.226562 32.652344 14.226562 C 32.414062 14.257812 30.199219 6.46875 30.140625 5.496094 C 30.140625 5.257812 31.410156 4.996094 33.980469 4.667969 C 36.550781 4.34375 37.226562 4.34375 37.375 4.730469 Z M 42.042969 4.816406 C 43.371094 4.964844 44.109375 5.171875 44.226562 5.4375 C 44.316406 5.671875 44.109375 7.03125 43.785156 8.445312 C 43.457031 9.863281 43.015625 11.71875 42.839844 12.574219 L 42.484375 14.136719 L 40.507812 13.933594 C 39.441406 13.84375 38.527344 13.726562 38.496094 13.695312 C 38.46875 13.667969 38.351562 4.996094 38.378906 4.582031 C 38.410156 4.433594 38.765625 4.402344 39.234375 4.492188 C 39.679688 4.550781 40.949219 4.730469 42.042969 4.816406 Z M 30.289062 9.417969 C 30.792969 11.425781 31.292969 13.429688 31.410156 13.84375 C 31.589844 14.582031 31.5 14.667969 29.816406 15.289062 C 28.84375 15.644531 27.984375 15.878906 27.925781 15.820312 C 27.867188 15.789062 26.980469 13.875 25.917969 11.601562 C 24.265625 8.003906 24.089844 7.441406 24.503906 7.175781 C 25.210938 6.765625 28.753906 5.585938 29.109375 5.671875 C 29.257812 5.703125 29.789062 7.382812 30.289062 9.417969 Z M 48.066406 6.261719 C 49.214844 6.644531 51.019531 7.382812 52.050781 7.914062 C 54.148438 8.945312 57.957031 11.484375 58.105469 11.925781 C 58.164062 12.101562 56.921875 13.695312 55.386719 15.523438 L 52.554688 18.828125 L 50.871094 17.738281 C 49.953125 17.117188 49.128906 16.585938 49.070312 16.558594 C 49.007812 16.5 49.71875 14.667969 50.664062 12.488281 C 51.609375 10.304688 52.289062 8.414062 52.199219 8.296875 C 51.84375 7.945312 51.460938 8.5625 49.808594 12.339844 C 48.921875 14.375 48.066406 15.996094 47.945312 15.96875 C 47.828125 15.910156 46.734375 15.523438 45.527344 15.082031 L 43.371094 14.316406 L 43.546875 13.253906 C 44.019531 10.246094 45.289062 5.554688 45.613281 5.554688 C 45.820312 5.554688 46.914062 5.878906 48.066406 6.261719 Z M 25.300781 12.042969 C 26.304688 14.226562 27.160156 16.113281 27.160156 16.203125 C 27.1875 16.292969 26.304688 16.941406 25.242188 17.648438 L 23.292969 18.886719 L 22.375 17.765625 C 21.84375 17.148438 20.488281 15.496094 19.304688 14.109375 L 17.179688 11.601562 L 17.945312 11.011719 C 19.484375 9.800781 22.613281 7.945312 23.027344 8.003906 C 23.230469 8.03125 24.265625 9.863281 25.300781 12.042969 Z M 19.808594 15.9375 L 22.789062 19.535156 L 21.875 20.390625 L 20.929688 21.277344 L 17.503906 17.855469 L 14.078125 14.402344 L 15.082031 13.371094 C 15.644531 12.8125 16.234375 12.339844 16.441406 12.339844 C 16.617188 12.339844 18.152344 13.960938 19.808594 15.9375 Z M 60.40625 13.8125 L 61.558594 14.992188 L 58.398438 18.179688 L 55.238281 21.335938 L 54.234375 20.304688 L 53.230469 19.269531 L 56.066406 15.96875 C 57.660156 14.136719 58.988281 12.632812 59.078125 12.632812 C 59.167969 12.632812 59.789062 13.164062 60.40625 13.8125 Z M 42.128906 15.054688 C 42.21875 15.171875 41.921875 16.96875 41.449219 19.09375 L 40.625 22.957031 L 37.90625 22.957031 C 36.402344 22.957031 35.074219 22.957031 34.953125 22.988281 C 34.660156 23.015625 33.125 17.558594 33.035156 16.175781 C 32.945312 15.171875 33.007812 15.140625 34.128906 14.933594 C 35.546875 14.699219 41.863281 14.816406 42.128906 15.054688 Z M 19.777344 22.691406 C 19.453125 23.164062 19.070312 23.609375 18.921875 23.695312 C 18.625 23.871094 10.890625 18.5625 11.007812 18.210938 C 11.066406 18.0625 11.628906 17.292969 12.277344 16.46875 L 13.457031 14.992188 L 16.914062 18.445312 L 20.367188 21.898438 Z M 45.261719 15.847656 C 47.238281 16.527344 48.417969 17.117188 50.425781 18.445312 L 51.960938 19.449219 L 49.304688 22.664062 L 46.648438 25.847656 L 44.992188 24.847656 C 44.109375 24.316406 42.984375 23.785156 42.515625 23.695312 C 42.042969 23.578125 41.597656 23.402344 41.539062 23.28125 C 41.421875 23.105469 42.101562 19.625 42.984375 15.9375 C 43.191406 15.140625 43.222656 15.140625 45.261719 15.847656 Z M 32.207031 16.824219 C 32.386719 17.53125 32.859375 19.269531 33.273438 20.714844 C 33.65625 22.191406 33.949219 23.371094 33.890625 23.371094 C 33.863281 23.402344 32.769531 23.933594 31.441406 24.609375 L 29.050781 25.820312 L 26.863281 23.164062 C 25.652344 21.71875 24.53125 20.273438 24.324219 20.007812 C 24.03125 19.597656 24.238281 19.359375 25.890625 18.269531 C 27.71875 17.058594 30.761719 15.613281 31.53125 15.585938 C 31.734375 15.585938 32.03125 16.144531 32.207031 16.824219 Z M 63.183594 17.03125 C 63.683594 17.648438 64.097656 18.296875 64.097656 18.476562 C 64.097656 18.742188 58.164062 23.460938 57.484375 23.726562 C 57.277344 23.785156 56.835938 23.429688 56.449219 22.929688 L 55.773438 22.015625 L 58.8125 18.945312 C 60.496094 17.265625 61.972656 15.878906 62.0625 15.878906 C 62.179688 15.878906 62.679688 16.410156 63.183594 17.03125 Z M 14.136719 21.691406 C 16.175781 23.136719 17.976562 24.375 18.125 24.460938 C 18.359375 24.640625 17.742188 25.996094 16.972656 27.027344 C 16.941406 27.089844 14.964844 26.113281 12.601562 24.875 L 8.292969 22.605469 L 9.238281 20.863281 C 9.769531 19.921875 10.242188 19.125 10.300781 19.125 C 10.359375 19.125 12.070312 20.273438 14.136719 21.691406 Z M 66.015625 21.277344 C 66.578125 22.308594 67.050781 23.253906 67.050781 23.34375 C 67.050781 23.578125 65.605469 24.316406 61.824219 26.085938 L 59.109375 27.355469 L 58.457031 26.027344 C 58.074219 25.316406 57.867188 24.667969 57.957031 24.582031 C 58.488281 24.050781 64.570312 19.417969 64.746094 19.417969 C 64.867188 19.417969 65.425781 20.273438 66.015625 21.277344 Z M 25.976562 23.34375 C 27.277344 24.90625 28.371094 26.292969 28.371094 26.4375 C 28.371094 26.558594 27.898438 27.148438 27.308594 27.765625 L 26.273438 28.886719 L 23.703125 27.207031 C 22.289062 26.292969 20.78125 25.316406 20.339844 25.054688 C 19.867188 24.789062 19.511719 24.492188 19.511719 24.402344 C 19.511719 24.078125 23.113281 20.273438 23.351562 20.363281 C 23.46875 20.421875 24.648438 21.75 25.976562 23.34375 Z M 53.941406 21.246094 C 55.09375 22.488281 56.125 23.84375 56.125 24.136719 C 56.125 24.257812 54.648438 25.464844 52.847656 26.792969 L 49.601562 29.242188 L 49.097656 28.535156 C 48.832031 28.148438 48.300781 27.53125 47.945312 27.148438 C 47.148438 26.351562 47 26.585938 50.191406 22.871094 C 51.402344 21.453125 52.554688 20.304688 52.730469 20.304688 C 52.90625 20.304688 53.46875 20.746094 53.941406 21.246094 Z M 12.394531 25.644531 C 14.609375 26.824219 16.441406 27.796875 16.5 27.855469 C 16.617188 27.914062 15.910156 30.332031 15.792969 30.332031 C 15.320312 30.332031 6.609375 28.148438 6.429688 27.972656 C 6.136719 27.707031 7.671875 23.546875 8.054688 23.546875 C 8.234375 23.546875 10.179688 24.492188 12.394531 25.644531 Z M 43.519531 25.113281 C 44.789062 25.730469 45.792969 26.351562 45.792969 26.527344 C 45.792969 26.851562 38.085938 35.9375 37.789062 35.9375 C 37.554688 35.9375 30.171875 27.207031 29.964844 26.675781 C 29.816406 26.261719 32.179688 24.875 34.097656 24.257812 C 34.867188 23.992188 36.402344 23.871094 38.292969 23.933594 C 41.066406 23.992188 41.421875 24.078125 43.519531 25.113281 Z M 68.023438 25.671875 C 69.117188 28.59375 69.382812 28.296875 64.71875 29.449219 C 62 30.097656 60.464844 30.363281 60.257812 30.15625 C 60.113281 30.007812 59.90625 29.449219 59.789062 28.945312 L 59.609375 28.03125 L 63.242188 26.261719 C 65.25 25.289062 67.050781 24.460938 67.226562 24.460938 C 67.40625 24.433594 67.757812 24.992188 68.023438 25.671875 Z M 58.015625 27.148438 C 59.757812 30.714844 59.875 30.570312 55.386719 31.691406 C 53.292969 32.25 51.488281 32.691406 51.402344 32.691406 C 51.078125 32.691406 50.160156 29.980469 50.398438 29.742188 C 50.957031 29.210938 56.570312 25.054688 56.777344 25.023438 C 56.894531 25.023438 57.453125 25.996094 58.015625 27.148438 Z M 22.523438 27.414062 C 24.296875 28.59375 25.683594 29.683594 25.625 29.859375 C 25.535156 30.039062 25.242188 30.777344 24.945312 31.511719 C 24.679688 32.25 24.414062 32.871094 24.382812 32.898438 C 24.355469 32.957031 22.613281 32.546875 20.515625 31.984375 C 16.914062 31.039062 16.707031 30.953125 16.796875 30.304688 C 16.882812 29.476562 18.804688 25.316406 19.070312 25.316406 C 19.1875 25.316406 20.722656 26.261719 22.523438 27.414062 Z M 32.800781 31.511719 C 34.480469 33.546875 36.046875 35.4375 36.285156 35.703125 C 36.695312 36.203125 36.429688 36.234375 30.730469 36.234375 L 24.738281 36.234375 L 24.914062 34.726562 C 25.152344 32.8125 26.480469 29.980469 27.925781 28.328125 C 28.84375 27.292969 29.109375 27.117188 29.402344 27.441406 C 29.582031 27.648438 31.117188 29.476562 32.800781 31.511719 Z M 49.363281 30.539062 C 50.28125 32.101562 51.195312 35.613281 50.839844 36.027344 C 50.722656 36.144531 48.003906 36.203125 44.816406 36.171875 L 38.96875 36.085938 L 46.53125 27.117188 L 47.503906 28.0625 C 48.035156 28.59375 48.890625 29.683594 49.363281 30.539062 Z M 10.949219 30.039062 C 13.132812 30.539062 15.082031 31.011719 15.289062 31.070312 C 15.734375 31.21875 15.171875 33.578125 14.667969 33.578125 C 14.492188 33.578125 12.484375 33.371094 10.210938 33.136719 C 7.9375 32.898438 5.898438 32.691406 5.722656 32.691406 C 5.25 32.691406 5.25 32.28125 5.664062 30.332031 C 5.929688 29.152344 6.078125 28.859375 6.460938 28.976562 C 6.757812 29.066406 8.765625 29.535156 10.949219 30.039062 Z M 69.5 31.101562 L 69.707031 32.28125 L 65.398438 32.957031 C 63.035156 33.3125 61.058594 33.578125 60.996094 33.519531 C 60.96875 33.460938 60.851562 32.957031 60.730469 32.339844 L 60.527344 31.277344 L 64.746094 30.246094 C 67.671875 29.566406 69.027344 29.328125 69.148438 29.566406 C 69.265625 29.742188 69.414062 30.421875 69.5 31.101562 Z M 59.757812 31.925781 C 59.847656 32.160156 60.023438 33.136719 60.140625 34.109375 L 60.320312 35.847656 L 57.867188 36.027344 C 56.507812 36.144531 54.621094 36.234375 53.703125 36.234375 L 52.023438 36.234375 L 51.753906 34.964844 C 51.609375 34.285156 51.519531 33.695312 51.578125 33.636719 C 51.636719 33.519531 58.8125 31.570312 59.253906 31.542969 C 59.460938 31.511719 59.667969 31.691406 59.757812 31.925781 Z M 20.339844 32.78125 C 22.347656 33.3125 23.96875 33.84375 23.96875 33.960938 C 23.941406 34.078125 23.941406 34.640625 23.941406 35.199219 L 23.941406 36.234375 L 15.585938 36.234375 L 15.792969 34.667969 C 16.058594 32.691406 16.292969 31.808594 16.53125 31.808594 C 16.617188 31.835938 18.332031 32.25 20.339844 32.78125 Z M 69.828125 33.460938 C 69.914062 33.726562 70.003906 34.375 70.003906 34.933594 L 70.003906 35.9375 L 61.144531 35.9375 L 61.144531 35.230469 C 61.144531 34.375 61.203125 34.34375 65.574219 33.726562 C 67.433594 33.460938 69.027344 33.164062 69.089844 33.105469 C 69.355469 32.871094 69.648438 33.015625 69.828125 33.460938 Z M 9.945312 33.871094 C 15.082031 34.34375 14.996094 34.34375 14.847656 35.316406 C 14.730469 36.085938 14.609375 36.171875 13.222656 36.351562 C 12.367188 36.4375 10.179688 36.527344 8.378906 36.527344 L 5.042969 36.527344 L 5.042969 35.050781 C 5.042969 33.3125 4.75 33.402344 9.945312 33.871094 Z M 50.957031 37.117188 C 51.285156 37.648438 50.484375 41.039062 49.601562 42.75 C 48.742188 44.492188 47.121094 46.558594 46.648438 46.558594 C 46.53125 46.558594 44.667969 44.460938 42.542969 41.894531 L 38.675781 37.265625 L 41.863281 37.089844 C 47.5625 36.824219 50.78125 36.824219 50.957031 37.117188 Z M 60.171875 39.210938 C 60.054688 40.539062 59.90625 41.691406 59.816406 41.777344 C 59.757812 41.867188 57.898438 41.542969 55.683594 41.101562 C 51.285156 40.183594 51.488281 40.363281 51.875 37.914062 L 52.082031 36.824219 L 60.347656 36.824219 Z M 69.945312 38.355469 L 69.855469 39.890625 L 66.753906 39.832031 C 65.042969 39.773438 63.09375 39.683594 62.414062 39.59375 L 61.144531 39.417969 L 61.144531 36.824219 L 70.035156 36.824219 Z M 14.875 38.355469 C 14.964844 39.0625 15.023438 39.625 14.996094 39.652344 C 14.875 39.742188 6.492188 40.65625 5.78125 40.65625 C 5.074219 40.65625 5.042969 40.570312 5.042969 38.886719 L 5.042969 37.117188 L 14.699219 37.117188 Z M 23.941406 38.121094 C 23.941406 38.679688 24 39.328125 24.089844 39.535156 C 24.207031 39.859375 23.292969 40.273438 20.398438 41.21875 C 18.273438 41.925781 16.46875 42.425781 16.410156 42.367188 C 16.265625 42.21875 15.671875 38.59375 15.671875 37.765625 C 15.671875 37.117188 15.703125 37.117188 19.808594 37.117188 L 23.941406 37.117188 Z M 36.429688 37.765625 C 36.105469 38.148438 34.277344 40.273438 32.355469 42.546875 L 28.871094 46.617188 L 27.898438 45.496094 C 26.363281 43.695312 25.09375 40.863281 24.914062 38.859375 L 24.738281 37.117188 L 37.023438 37.117188 Z M 41.921875 42.425781 C 44.90625 46.054688 45.761719 47.265625 45.527344 47.558594 C 45.023438 48.148438 42.246094 49.386719 40.507812 49.800781 C 37.492188 50.507812 33.449219 49.714844 30.671875 47.882812 L 29.523438 47.117188 L 31.085938 45.289062 C 31.972656 44.285156 33.773438 42.160156 35.132812 40.570312 C 36.460938 39.003906 37.671875 37.707031 37.789062 37.707031 C 37.878906 37.707031 39.738281 39.832031 41.921875 42.425781 Z M 15.378906 41.691406 C 15.347656 42.160156 14.550781 42.632812 10.890625 44.136719 C 8.4375 45.171875 6.34375 45.90625 6.226562 45.761719 C 5.988281 45.496094 5.25 41.835938 5.398438 41.691406 C 5.457031 41.628906 7.613281 41.335938 10.210938 41.039062 C 15.113281 40.480469 15.378906 40.507812 15.378906 41.691406 Z M 69.679688 40.863281 C 69.828125 40.980469 69.234375 44.757812 69.058594 44.933594 C 68.941406 45.050781 60.878906 43.136719 60.671875 42.929688 C 60.554688 42.839844 60.585938 42.21875 60.703125 41.542969 L 60.910156 40.304688 L 65.25 40.507812 C 67.613281 40.628906 69.621094 40.773438 69.679688 40.863281 Z M 24.914062 42.21875 C 25.179688 42.898438 25.417969 43.605469 25.386719 43.753906 C 25.359375 44.226562 19.511719 48.945312 19.214844 48.769531 C 18.832031 48.53125 17.917969 46.761719 17.207031 44.847656 L 16.617188 43.339844 L 20.074219 42.160156 C 21.960938 41.511719 23.703125 40.980469 23.941406 40.980469 C 24.207031 40.953125 24.589844 41.484375 24.914062 42.21875 Z M 58.722656 42.574219 C 59.078125 42.664062 59.375 42.929688 59.375 43.164062 C 59.375 43.8125 57.957031 47.148438 57.246094 48.089844 L 56.6875 48.886719 L 53.4375 46.558594 C 51.667969 45.289062 50.191406 44.167969 50.160156 44.050781 C 50.160156 43.960938 50.425781 43.222656 50.78125 42.457031 L 51.402344 41.011719 L 54.707031 41.71875 C 56.539062 42.101562 58.339844 42.484375 58.722656 42.574219 Z M 16.382812 45.257812 C 16.53125 45.789062 16.027344 46.230469 12.808594 48.386719 C 10.710938 49.742188 8.851562 50.980469 8.644531 51.097656 C 8.410156 51.246094 8.054688 50.835938 7.554688 49.742188 C 6.226562 46.851562 6.078125 47.058594 11.097656 44.933594 L 15.527344 43.074219 L 15.851562 43.84375 C 16.027344 44.285156 16.265625 44.90625 16.382812 45.257812 Z M 64.628906 44.847656 C 66.875 45.347656 68.703125 45.789062 68.734375 45.820312 C 68.96875 45.96875 67.847656 48.976562 67.492188 49.09375 C 67.226562 49.210938 60.289062 46.644531 59.460938 46.113281 C 59.285156 45.996094 60.113281 43.902344 60.347656 43.902344 C 60.496094 43.902344 62.414062 44.316406 64.628906 44.847656 Z M 27.808594 47.882812 C 27.515625 48.207031 26.390625 49.535156 25.269531 50.835938 C 24.175781 52.132812 23.144531 53.222656 23.027344 53.28125 C 22.789062 53.398438 20.042969 50.273438 20.042969 49.890625 C 20.074219 49.773438 21.371094 48.503906 22.964844 47.085938 L 25.859375 44.519531 L 27.101562 45.90625 C 28.3125 47.234375 28.3125 47.324219 27.808594 47.882812 Z M 53.144531 47.351562 C 54.679688 48.445312 55.976562 49.507812 56.039062 49.714844 C 56.097656 49.890625 55.359375 50.894531 54.355469 51.925781 L 52.582031 53.785156 L 51.519531 52.605469 C 50.929688 51.953125 49.746094 50.539062 48.832031 49.449219 L 47.207031 47.472656 L 48.359375 46.144531 C 49.660156 44.640625 49.277344 44.550781 53.144531 47.351562 Z M 17.769531 48.0625 C 18.273438 49.0625 18.300781 49.359375 17.976562 49.652344 C 17.652344 49.949219 12.042969 54.402344 11.039062 55.171875 C 10.800781 55.375 10.417969 55.023438 9.796875 54.019531 C 9.296875 53.253906 8.910156 52.425781 8.972656 52.21875 C 9.03125 51.808594 16.203125 46.910156 16.765625 46.882812 C 16.972656 46.851562 17.414062 47.414062 17.769531 48.0625 Z M 63.210938 48.53125 C 65.074219 49.269531 66.726562 50.007812 66.902344 50.15625 C 67.226562 50.449219 65.367188 54.226562 64.894531 54.226562 C 64.6875 54.226562 58.546875 50.15625 57.808594 49.507812 C 57.425781 49.183594 58.871094 46.824219 59.375 47.027344 C 59.609375 47.117188 61.351562 47.796875 63.210938 48.53125 Z M 32.355469 49.800781 C 32.535156 49.800781 32.917969 49.980469 33.210938 50.183594 C 33.714844 50.539062 33.683594 50.746094 32.945312 54.226562 C 32.503906 56.261719 32.03125 58.003906 31.941406 58.121094 C 31.324219 58.828125 24.058594 54.847656 24.117188 53.84375 C 24.148438 53.605469 25.242188 52.132812 26.570312 50.597656 L 28.992188 47.796875 L 30.527344 48.796875 C 31.351562 49.359375 32.179688 49.800781 32.355469 49.800781 Z M 49.1875 51.128906 C 51.34375 53.753906 51.695312 54.316406 51.371094 54.699219 C 50.398438 55.878906 43.605469 58.945312 43.105469 58.445312 C 42.925781 58.238281 41.363281 51.363281 41.363281 50.746094 C 41.363281 50.628906 42.011719 50.273438 42.78125 50.007812 C 43.578125 49.714844 44.667969 49.152344 45.230469 48.769531 C 45.792969 48.386719 46.324219 48.0625 46.410156 48.03125 C 46.5 48.03125 47.738281 49.417969 49.1875 51.128906 Z M 19.542969 50.746094 C 19.835938 51.128906 20.074219 51.601562 20.101562 51.808594 C 20.101562 52.015625 18.683594 53.785156 16.941406 55.730469 L 13.753906 59.242188 L 12.78125 58.148438 C 11.007812 56.113281 10.890625 56.378906 15.023438 53.074219 C 17.089844 51.453125 18.804688 50.097656 18.863281 50.097656 C 18.921875 50.097656 19.214844 50.390625 19.542969 50.746094 Z M 61.117188 52.75 C 62.917969 53.960938 64.394531 55.050781 64.394531 55.140625 C 64.394531 55.496094 62.265625 58.089844 62.03125 58.003906 C 61.707031 57.882812 55.832031 52.132812 55.832031 51.953125 C 55.832031 51.867188 56.097656 51.425781 56.449219 50.953125 C 56.835938 50.390625 57.1875 50.15625 57.453125 50.304688 C 57.660156 50.449219 59.316406 51.542969 61.117188 52.75 Z M 40.625 51.425781 C 41.628906 55.761719 42.128906 58.679688 41.921875 58.796875 C 41.304688 59.183594 36.875 59.300781 34.925781 58.945312 C 33.773438 58.769531 32.800781 58.5625 32.800781 58.503906 C 32.800781 58.355469 34.304688 51.71875 34.453125 51.246094 C 34.542969 50.863281 35.101562 50.804688 37.554688 50.804688 C 40.238281 50.835938 40.507812 50.894531 40.625 51.425781 Z M 21.84375 53.460938 L 22.496094 54.136719 L 19.335938 57.882812 L 16.144531 61.601562 L 15.320312 60.804688 C 14.847656 60.363281 14.523438 59.890625 14.582031 59.742188 C 14.757812 59.210938 20.546875 52.78125 20.871094 52.78125 C 21.046875 52.75 21.460938 53.074219 21.84375 53.460938 Z M 58.457031 55.847656 L 61.589844 58.917969 L 60.40625 60.125 C 59.789062 60.773438 59.109375 61.304688 58.929688 61.304688 C 58.785156 61.277344 57.394531 59.742188 55.859375 57.882812 L 53.085938 54.492188 L 53.941406 53.605469 C 54.382812 53.136719 54.886719 52.75 55.035156 52.75 C 55.210938 52.75 56.746094 54.136719 58.457031 55.847656 Z M 23.941406 55.257812 C 24.117188 55.496094 24.886719 56.027344 25.59375 56.4375 C 26.777344 57.148438 26.863281 57.265625 26.570312 57.855469 C 25.949219 59.035156 22.375 65.582031 22.289062 65.699219 C 22.167969 65.820312 17.238281 62.574219 17.003906 62.21875 C 16.824219 61.894531 22.789062 54.847656 23.230469 54.816406 C 23.410156 54.816406 23.734375 55.023438 23.941406 55.257812 Z M 55.152344 58.265625 C 56.597656 60.039062 57.867188 61.601562 57.984375 61.808594 C 58.222656 62.160156 54.324219 65.140625 53.617188 65.140625 C 53.410156 65.140625 52.199219 63.460938 50.871094 61.394531 L 48.449219 57.675781 L 50.308594 56.4375 C 51.3125 55.730469 52.226562 55.171875 52.347656 55.140625 C 52.433594 55.140625 53.703125 56.527344 55.152344 58.265625 Z M 29.726562 58.472656 C 31.203125 59.09375 31.46875 59.300781 31.382812 59.890625 C 31.324219 60.507812 31 62.21875 30.113281 66.851562 L 29.789062 68.445312 L 28.722656 68.238281 C 27.808594 68.0625 23.378906 66.4375 23.113281 66.171875 C 22.9375 66.027344 27.515625 57.765625 27.75 57.765625 C 27.867188 57.765625 28.753906 58.089844 29.726562 58.472656 Z M 50.191406 61.867188 C 51.519531 63.871094 52.582031 65.613281 52.582031 65.699219 C 52.582031 65.90625 47.769531 67.941406 46.589844 68.207031 C 45.910156 68.355469 45.730469 68.265625 45.527344 67.707031 C 45.289062 67.117188 43.457031 60.480469 43.339844 59.742188 C 43.28125 59.476562 46.914062 58.121094 47.472656 58.179688 C 47.652344 58.179688 48.890625 59.859375 50.191406 61.867188 Z M 35.28125 59.859375 L 37.492188 60.183594 L 37.582031 64.667969 C 37.640625 67.117188 37.582031 69.242188 37.492188 69.359375 C 37.375 69.507812 35.8125 69.445312 34.011719 69.269531 C 31.324219 68.976562 30.730469 68.796875 30.730469 68.414062 C 30.730469 68.148438 31.085938 66.054688 31.53125 63.722656 C 32.0625 60.953125 32.445312 59.535156 32.679688 59.535156 C 32.886719 59.535156 34.070312 59.683594 35.28125 59.859375 Z M 42.839844 61.21875 C 43.046875 62.015625 43.578125 63.960938 44.050781 65.582031 C 44.667969 67.707031 44.789062 68.5625 44.550781 68.710938 C 44.34375 68.828125 43.191406 69.035156 41.953125 69.121094 C 40.742188 69.242188 39.503906 69.386719 39.207031 69.445312 C 38.941406 69.535156 38.644531 69.417969 38.585938 69.210938 C 38.496094 69.003906 38.410156 66.882812 38.351562 64.492188 L 38.261719 60.183594 L 40.179688 59.917969 C 41.242188 59.773438 42.1875 59.683594 42.277344 59.742188 C 42.367188 59.773438 42.632812 60.449219 42.839844 61.21875 Z M 42.839844 61.21875 " fill-opacity="1" fill-rule="nonzero"/></svg>